<?xml version="1.0" standalone="no"?>
<!DOCTYPE svg PUBLIC "-//W3C//DTD SVG 1.1//EN" "http://www.w3.org/Graphics/SVG/1.1/DTD/svg11.dtd" >
<svg>
<metadata>
Created by FontForge 20120731 at Sat Jun 29 13:16:47 2019
 By www
Part of the digitally encoded machine readable outline data for producing the Typefaces provided is copyrighted  2004 - 2006 Linotype GmbH, www.linotype.com. All rights reserved. This software is the property of Linotype GmbH, and may not be reproduced, modified, disclosed or transferred without the express written approval of Linotype GmbH.  Copyright  1986 Adobe Systems Incorporated. All Rights Reserved.
</metadata>
<defs>
<font id="DINNeuzeitGroteskLTW01-BdCn" horiz-adv-x="408" >
  <font-face 
    font-family="DINNeuzeitGroteskLTW01-BdCn"
    font-weight="400"
    font-stretch="normal"
    units-per-em="1000"
    panose-1="2 11 6 6 2 2 3 3 2 4"
    ascent="760"
    descent="-240"
    x-height="538"
    cap-height="736"
    bbox="-42 -250 1000 934"
    underline-thickness="50"
    underline-position="-100"
    unicode-range="U+000D-E011"
  />
<missing-glyph horiz-adv-x="240" 
 />
    <glyph glyph-name=".notdef" horiz-adv-x="240" 
 />
    <glyph glyph-name=".null" horiz-adv-x="0" 
 />
    <glyph glyph-name="uni000D" unicode="&#xd;" horiz-adv-x="0" 
 />
    <glyph glyph-name="space" unicode=" " horiz-adv-x="240" 
 />
    <glyph glyph-name="exclam" unicode="!" horiz-adv-x="240" 
d="M64 736h112l-19 -546h-74zM60 54q0 25 17.5 42.5t42.5 17.5t42.5 -17.5t17.5 -42.5t-17.5 -42.5t-42.5 -17.5t-42.5 17.5t-17.5 42.5z" />
    <glyph glyph-name="quotedbl" unicode="&#x22;" horiz-adv-x="352" 
d="M207 736h74v-204h-74v204zM71 736h74v-204h-74v204z" />
    <glyph glyph-name="numbersign" unicode="#" 
d="M78 216h-78v63h85l17 145h-78v63h85l25 216h62l-25 -216h96l25 216h62l-24 -216h78v-63h-85l-17 -145h78v-63h-85l-25 -216h-62l25 216h-96l-25 -216h-62zM244 279l16 145h-96l-16 -145h96z" />
    <glyph glyph-name="dollar" unicode="$" 
d="M96 168q9 -47 27 -70.5t58 -27.5v243q-41 24 -72.5 48.5t-52.5 51.5t-31.5 57.5t-10.5 67.5q0 38 12 70.5t33.5 55.5t52.5 36.5t69 14.5v57h47v-57q74 -2 115.5 -35t57.5 -105l-88 -31q-8 51 -29 69t-56 20v-227q39 -24 71.5 -48.5t56 -52t36.5 -60t13 -72.5
q0 -37 -12.5 -70t-36 -58.5t-56 -40.5t-72.5 -16v-70h-47v70q-73 2 -120.5 39.5t-57.5 118.5zM181 633q-40 -5 -57.5 -26.5t-17.5 -55.5q0 -30 16 -58t59 -60v200zM228 70q38 8 61.5 32.5t23.5 62.5q0 35 -20.5 61t-64.5 60v-216z" />
    <glyph glyph-name="percent" unicode="%" horiz-adv-x="778" 
d="M573 723h64l-431 -743h-64zM207 391q-34 0 -57.5 12.5t-38.5 34.5t-22 51.5t-7 63.5t7 63.5t22 51.5t38.5 34.5t57.5 12.5t57.5 -12.5t38.5 -34.5t22 -51.5t7 -63.5t-7 -63.5t-22 -51.5t-38.5 -34.5t-57.5 -12.5zM207 459q24 0 33.5 23t9.5 71t-9.5 71t-33.5 23
t-33.5 -23t-9.5 -71t9.5 -71t33.5 -23zM446 150q0 34 7 63.5t22 51.5t38.5 34.5t57.5 12.5t57.5 -12.5t38.5 -34.5t22 -51.5t7 -63.5t-7 -63.5t-22 -51.5t-38.5 -34.5t-57.5 -12.5t-57.5 12.5t-38.5 34.5t-22 51.5t-7 63.5zM528 150q0 -48 9.5 -71t33.5 -23t33.5 23t9.5 71
t-9.5 71t-33.5 23t-33.5 -23t-9.5 -71z" />
    <glyph glyph-name="ampersand" unicode="&#x26;" horiz-adv-x="519" 
d="M40 171q0 57 35 110t105 106q-14 27 -23.5 49t-15 41t-8 36t-2.5 34q0 59 36.5 96.5t95.5 37.5q25 0 49 -8.5t43 -25.5t30.5 -42t11.5 -58q0 -50 -24.5 -95t-78.5 -86l91 -178l48 69l70 -57l-73 -98l53 -102h-102l-21 46q-25 -26 -62 -40.5t-82 -14.5q-44 0 -76.5 14.5
t-55 39.5t-33.5 57.5t-11 68.5zM258 443q26 28 36.5 52.5t10.5 45.5q0 26 -12 39.5t-29 13.5t-29 -13.5t-12 -39.5q0 -16 9 -44.5t26 -53.5zM137 178q0 -20 7 -38.5t19 -32t28.5 -21.5t36.5 -8q26 0 48 10.5t38 28.5l-92 190q-44 -29 -64.5 -61.5t-20.5 -67.5z" />
    <glyph glyph-name="quotesingle" unicode="'" horiz-adv-x="240" 
d="M83 736h74v-204h-74v204z" />
    <glyph glyph-name="parenleft" unicode="(" horiz-adv-x="296" 
d="M186 -171q-60 111 -86.5 232t-26.5 243t26.5 243t86.5 232l86 -43q-52 -100 -77 -208.5t-25 -223.5t25 -223.5t77 -208.5l-86 -43v0z" />
    <glyph glyph-name="parenright" unicode=")" horiz-adv-x="296" 
d="M24 -128q52 100 77 208.5t25 223.5t-25 223.5t-77 208.5l86 43q60 -111 86.5 -232t26.5 -243t-26.5 -243t-86.5 -232l-86 43v0z" />
    <glyph glyph-name="asterisk" unicode="*" horiz-adv-x="352" 
d="M72 501l65 83l-102 29l17 54l100 -37l-4 106h56l-4 -106l100 37l17 -54l-102 -29l65 -83l-45 -33l-59 88l-59 -88z" />
    <glyph glyph-name="plus" unicode="+" horiz-adv-x="600" 
d="M47 290h216v216h74v-216h216v-74h-216v-216h-74v216h-216v74z" />
    <glyph glyph-name="comma" unicode="," horiz-adv-x="240" 
d="M77 127h107l-88 -213h-82z" />
    <glyph glyph-name="hyphen" unicode="-" horiz-adv-x="296" 
d="M51 327h194v-87h-194v87z" />
    <glyph glyph-name="period" unicode="." horiz-adv-x="240" 
d="M60 54q0 25 17.5 42.5t42.5 17.5t42.5 -17.5t17.5 -42.5t-17.5 -42.5t-42.5 -17.5t-42.5 17.5t-17.5 42.5z" />
    <glyph glyph-name="slash" unicode="/" horiz-adv-x="296" 
d="M206 751h74l-190 -766h-74z" />
    <glyph glyph-name="zero" unicode="0" 
d="M204 -12q-55 0 -88 27.5t-51 77t-23.5 118.5t-5.5 152q0 67 4 130.5t21 112.5t50.5 79t92.5 30t92.5 -30t50.5 -79t21 -112.5t4 -130.5q0 -83 -5.5 -152t-23.5 -118.5t-51 -77t-88 -27.5zM204 80q22 0 35 13.5t20 46t9 87t2 136.5q0 75 -2.5 125t-9.5 80t-20 42.5
t-34 12.5t-34 -12.5t-20 -42.5t-9.5 -80t-2.5 -125q0 -77 2.5 -130.5t10 -87.5t20.5 -49.5t33 -15.5z" />
    <glyph glyph-name="one" unicode="1" horiz-adv-x="296" 
d="M112 563q-7 -7 -18.5 -15.5t-25 -16.5t-26.5 -15t-22 -10v92q47 21 93.5 53t81.5 64h19v-715h-102v563z" />
    <glyph glyph-name="two" unicode="2" 
d="M196 326q13 26 26.5 54t25 55.5t18.5 54.5t7 50q0 32 -16 57.5t-47 25.5q-38 0 -52.5 -33t-17.5 -92h-102q0 44 8.5 83.5t29 69t54.5 47t84 17.5q42 0 73 -15t51.5 -39t31 -54.5t10.5 -61.5q0 -32 -9.5 -67t-25 -71t-34.5 -72t-37 -69l-95 -174h192v-92h-343z" />
    <glyph glyph-name="three" unicode="3" 
d="M195 -12q-82 0 -120.5 55.5t-38.5 149.5h102q0 -51 13.5 -82t51.5 -31q19 0 32 11t21 30.5t11 45.5t3 56q0 61 -18.5 100t-60.5 39q-37 0 -61 -34l-60 46l148 237h-167v92h318v-12l-162 -258q9 2 17.5 2.5t17.5 0.5q69 0 99.5 -60t30.5 -166q0 -48 -12 -88.5t-35 -70.5
t-55.5 -46.5t-74.5 -16.5z" />
    <glyph glyph-name="four" unicode="4" 
d="M12 203l209 500h92v-483h75v-87h-75v-133h-97v133h-204v70zM216 220v301h-2l-121 -301h123z" />
    <glyph glyph-name="five" unicode="5" 
d="M36 203h97q0 -23 3 -45.5t10.5 -41t19.5 -30t31 -11.5q22 0 36 13t22 36.5t11.5 55t3.5 69.5q0 81 -19 115.5t-51 34.5q-20 0 -39.5 -16t-21.5 -59h-87l4 379h293v-92h-201l-4 -174l2 -2q32 51 96 51q22 0 45 -11.5t42 -38t31 -70.5t12 -108q0 -42 -5 -89.5t-22.5 -87.5
t-51 -66.5t-89.5 -26.5q-50 0 -82.5 17.5t-51.5 45t-26.5 61.5t-7.5 67v24z" />
    <glyph glyph-name="six" unicode="6" 
d="M201 -12q-44 0 -76.5 17.5t-53.5 49t-31 76t-10 98.5q0 49 8.5 96.5t29.5 102.5t55.5 121.5t86.5 153.5h120q-36 -51 -73.5 -117t-71.5 -131h2q24 13 54 13q23 0 46.5 -11t42 -39t30.5 -74.5t12 -117.5q0 -41 -8.5 -83.5t-29 -77t-53 -56t-80.5 -21.5zM204 75q34 0 50 40
t16 116q0 74 -15 112t-49 38q-21 0 -35 -12.5t-23 -33.5t-12.5 -48t-3.5 -56q0 -24 3 -51.5t11.5 -50.5t22.5 -38.5t35 -15.5z" />
    <glyph glyph-name="seven" unicode="7" 
d="M252 611h-206v92h337l-230 -703h-102z" />
    <glyph glyph-name="eight" unicode="8" 
d="M36 197q0 70 20 115.5t71 68.5q-48 23 -63 59t-15 89q0 40 10 74t29.5 59t48.5 39t67 14t67 -14t48.5 -39t29.5 -59t10 -74q0 -53 -15 -89t-63 -59q51 -23 71 -68.5t20 -115.5q0 -38 -8.5 -75t-28 -67t-51.5 -48.5t-80 -18.5t-80 18.5t-51.5 48.5t-28 67t-8.5 75z
M204 418q33 0 45.5 31.5t12.5 76.5t-13.5 73.5t-44.5 28.5t-44.5 -28.5t-13.5 -73.5t12.5 -76.5t45.5 -31.5zM204 80q19 0 32 10.5t20.5 28t10.5 40.5t3 48q0 54 -14 89t-52 35t-52 -35t-14 -89q0 -25 3 -48t10.5 -40.5t20 -28t32.5 -10.5z" />
    <glyph glyph-name="nine" unicode="9" 
d="M78 0q36 51 73.5 117t71.5 131h-2q-24 -13 -54 -13q-23 0 -46.5 11t-42 39t-30.5 74.5t-12 117.5q0 41 8.5 83.5t29 77t53 56t80.5 21.5q44 0 76.5 -17.5t53.5 -49t31 -76t10 -98.5q0 -49 -8.5 -96.5t-29.5 -102.5t-55.5 -121.5t-86.5 -153.5h-120zM202 322q21 0 35 12.5
t23 33.5t12.5 48t3.5 56q0 24 -3 51.5t-11.5 50.5t-22.5 38.5t-35 15.5q-34 0 -50 -40t-16 -116q0 -74 15 -112t49 -38z" />
    <glyph glyph-name="colon" unicode=":" horiz-adv-x="240" 
d="M120 412q-25 0 -42.5 17.5t-17.5 42.5t17.5 42.5t42.5 17.5t42.5 -17.5t17.5 -42.5t-17.5 -42.5t-42.5 -17.5zM60 54q0 25 17.5 42.5t42.5 17.5t42.5 -17.5t17.5 -42.5t-17.5 -42.5t-42.5 -17.5t-42.5 17.5t-17.5 42.5z" />
    <glyph glyph-name="semicolon" unicode=";" horiz-adv-x="240" 
d="M120 412q-25 0 -42.5 17.5t-17.5 42.5t17.5 42.5t42.5 17.5t42.5 -17.5t17.5 -42.5t-17.5 -42.5t-42.5 -17.5zM77 127h107l-88 -213h-82z" />
    <glyph glyph-name="less" unicode="&#x3c;" horiz-adv-x="600" 
d="M47 287l506 227v-74l-414 -187l414 -187v-74l-506 227v68z" />
    <glyph glyph-name="equal" unicode="=" horiz-adv-x="600" 
d="M47 392h506v-74h-506v74zM47 188h506v-74h-506v74z" />
    <glyph glyph-name="greater" unicode="&#x3e;" horiz-adv-x="600" 
d="M47 66l414 187l-414 187v74l506 -227v-68l-506 -227v74z" />
    <glyph glyph-name="question" unicode="?" horiz-adv-x="352" 
d="M114 190q1 46 3.5 76t7 51t11 36.5t17.5 32.5l42 68q11 18 18 32.5t10.5 28.5t5 30t1.5 37q0 43 -11.5 62.5t-40.5 19.5q-18 0 -29 -10t-17 -27.5t-8 -40.5t-2 -48h-102v16q0 43 9.5 79t29.5 62.5t51 41t73 14.5q30 0 57 -9.5t47.5 -30t32.5 -53t12 -78.5
q0 -23 -2.5 -41.5t-7.5 -36t-14.5 -35t-22.5 -37.5l-44 -66q-12 -18 -19.5 -35.5t-12 -38t-6 -44.5t-2.5 -56h-87zM98 54q0 25 17.5 42.5t42.5 17.5t42.5 -17.5t17.5 -42.5t-17.5 -42.5t-42.5 -17.5t-42.5 17.5t-17.5 42.5z" />
    <glyph glyph-name="at" unicode="@" horiz-adv-x="800" 
d="M176 304q0 51 17.5 101.5t50 90.5t77.5 64.5t100 24.5q38 0 69.5 -18t52.5 -61l20 62h74l-87 -284q-4 -14 -6.5 -27t-2.5 -24t4.5 -17.5t15.5 -6.5q27 0 53.5 19t47.5 49.5t34 69.5t13 80q0 60 -23.5 108.5t-63.5 82.5t-93.5 52t-113.5 18q-70 0 -129.5 -25.5t-102.5 -69
t-67.5 -102.5t-24.5 -126q0 -69 26 -127t71 -100t105 -66t129 -24q77 0 146 30.5t114 84.5h74q-54 -84 -143 -131t-196 -47q-83 0 -156 30t-127 82t-85.5 121.5t-31.5 149.5q0 79 31.5 149t85.5 122t127 82t156 30q74 0 140.5 -23t116.5 -65t79.5 -100t29.5 -128
q0 -69 -26.5 -123.5t-65.5 -92.5t-83 -58t-80 -20q-26 0 -45.5 15.5t-23.5 47.5h-2q-22 -25 -55.5 -44t-69.5 -19q-34 0 -62.5 13t-49.5 35t-32.5 52t-11.5 63zM258 312q0 -44 25.5 -70.5t65.5 -26.5q34 0 63.5 20.5t51.5 50.5t34 65.5t12 65.5q0 19 -7 36t-19.5 30
t-29 20.5t-34.5 7.5q-36 0 -65.5 -19.5t-51 -48.5t-33.5 -64.5t-12 -66.5z" />
    <glyph glyph-name="A" unicode="A" horiz-adv-x="463" 
d="M175 736h102l166 -736h-107l-29 152h-161l-29 -152h-97zM292 234l-64 336h-2l-64 -336h130z" />
    <glyph glyph-name="B" unicode="B" horiz-adv-x="463" 
d="M56 736h143q62 0 102 -18t63 -45t32 -59.5t9 -61.5q0 -61 -23 -98t-76 -60q63 -20 89 -68.5t26 -111.5q0 -26 -7 -62.5t-30 -70t-65.5 -57.5t-114.5 -24h-148v736zM174 434q27 0 51 5.5t41 18t27 33.5t10 51q0 52 -28.5 79.5t-96.5 27.5h-20v-215h16zM158 87q80 0 118 29
t38 101q0 135 -141 135h-15v-265z" />
    <glyph glyph-name="C" unicode="C" horiz-adv-x="463" 
d="M239 -15q-51 0 -88.5 21t-63 67.5t-38 120t-12.5 179.5q0 36 2.5 78t10 84t21 81t37 69t57 48t80.5 18q66 0 110.5 -41t65.5 -127l-101 -34q-9 60 -29.5 85t-46.5 25q-30 0 -49.5 -24t-30.5 -63t-15.5 -90t-4.5 -105q0 -62 4 -116.5t15 -95.5t29.5 -64.5t48.5 -23.5
q21 0 36.5 12.5t26.5 32.5t18 45.5t10 52.5l98 -35q-6 -41 -19.5 -77.5t-36.5 -63.5t-56.5 -43t-78.5 -16z" />
    <glyph glyph-name="D" unicode="D" horiz-adv-x="463" 
d="M56 736h118q73 0 120.5 -31.5t75.5 -84t39.5 -119.5t11.5 -139q0 -59 -10.5 -123t-37.5 -117t-73.5 -87.5t-117.5 -34.5h-126v736zM158 87q46 0 76 22t48 60t25 89.5t7 110.5q0 137 -39.5 208.5t-116.5 71.5v-562z" />
    <glyph glyph-name="E" unicode="E" horiz-adv-x="352" 
d="M56 736h268v-87h-166v-215h166v-87h-166v-260h166v-87h-268v736z" />
    <glyph glyph-name="F" unicode="F" horiz-adv-x="352" 
d="M56 736h268v-87h-166v-215h166v-87h-166v-347h-102v736z" />
    <glyph glyph-name="G" unicode="G" horiz-adv-x="463" 
d="M232 -15q-66 0 -105 33t-59 87t-25.5 123t-5.5 140q0 76 8 145.5t30 122t59.5 84t97.5 31.5q38 0 67 -12t50 -33.5t34.5 -51.5t22.5 -66l-99 -37q-7 51 -25 79.5t-50 28.5q-20 0 -36 -15t-27.5 -51t-18 -95t-6.5 -146q0 -56 3.5 -106t13 -87.5t26.5 -59.5t45 -22
q26 0 42.5 18.5t26 52t13.5 80.5t6 104h-104v92h206v-85q0 -66 -8 -130t-29 -113.5t-58 -80t-95 -30.5z" />
    <glyph glyph-name="H" unicode="H" horiz-adv-x="463" 
d="M56 736h102v-302h147v302h102v-736h-102v347h-147v-347h-102v736z" />
    <glyph glyph-name="I" unicode="I" horiz-adv-x="240" 
d="M69 736h102v-736h-102v736z" />
    <glyph glyph-name="J" unicode="J" horiz-adv-x="352" 
d="M86 121q10 -22 25 -35.5t32 -13.5q25 0 38 17t13 43v604h102v-594q0 -30 -7.5 -58.5t-25 -50t-45 -35t-67.5 -13.5q-47 0 -79.5 17t-54.5 49z" />
    <glyph glyph-name="K" unicode="K" horiz-adv-x="463" 
d="M56 736h102v-333h2l161 333h110l-176 -345l188 -391h-114l-169 367h-2v-367h-102v736z" />
    <glyph glyph-name="L" unicode="L" horiz-adv-x="352" 
d="M69 736h102v-644h164v-92h-266v736z" />
    <glyph glyph-name="M" unicode="M" horiz-adv-x="630" 
d="M56 736h110l148 -491h2l148 491h110v-736h-97v490h-2l-121 -418h-78l-121 418h-2v-490h-97v736z" />
    <glyph glyph-name="N" unicode="N" horiz-adv-x="463" 
d="M56 736h102l150 -466h2v466h97v-736h-102l-150 466h-2v-466h-97v736z" />
    <glyph glyph-name="O" unicode="O" horiz-adv-x="463" 
d="M37 368q0 76 8 145.5t30 122t59.5 84t97.5 31.5q66 0 104.5 -33t58.5 -87t25.5 -123t5.5 -140q0 -76 -8 -145.5t-29.5 -122t-59.5 -84t-97 -31.5q-66 0 -105 33t-59 87t-25.5 123t-5.5 140zM144 352q0 -56 3.5 -106t13 -87.5t26.5 -59.5t45 -22q27 0 44 22.5t26.5 64
t13 99t3.5 128.5q0 84 -6.5 136t-18.5 81.5t-28 40t-34 10.5q-20 0 -36 -15t-27.5 -51t-18 -95t-6.5 -146z" />
    <glyph glyph-name="P" unicode="P" horiz-adv-x="407" 
d="M56 736h103q49 0 90 -12.5t69.5 -39.5t44.5 -70.5t16 -105.5q0 -51 -12.5 -93.5t-38 -72.5t-63.5 -47t-90 -17h-17v-278h-102v736zM158 365q33 0 55 11.5t35 31t18.5 46t5.5 56.5q0 64 -27 101.5t-87 37.5v-284z" />
    <glyph glyph-name="Q" unicode="Q" horiz-adv-x="463" 
d="M289 -5q-7 -2 -13.5 -4t-13.5 -4q-8 -1 -15 -1.5t-15 -0.5q-66 0 -105 33t-59 87t-25.5 123t-5.5 140q0 76 8 145.5t30 122t59.5 84t97.5 31.5q66 0 104.5 -33t58.5 -87t25.5 -123t5.5 -140q0 -98 -14 -183t-54 -138l45 -69l-77 -51zM270 183l27 -41q13 41 17.5 104.5
t4.5 144.5q0 84 -6.5 136t-18.5 81.5t-28 40t-34 10.5q-20 0 -36 -15t-27.5 -51t-18 -95t-6.5 -146q0 -56 3.5 -106t13 -87.5t26.5 -59.5t45 -22q7 0 11 1l-37 68z" />
    <glyph glyph-name="R" unicode="R" horiz-adv-x="463" 
d="M62 736h165q42 0 76.5 -14.5t60 -40.5t39.5 -63.5t14 -83.5q0 -28 -8 -57t-23.5 -53.5t-39.5 -43.5t-55 -28l149 -352h-117l-135 337h-24v-337h-102v736zM164 424q75 0 110.5 26t35.5 91q0 46 -28.5 77t-82.5 31h-35v-225z" />
    <glyph glyph-name="S" unicode="S" horiz-adv-x="407" 
d="M276 557q-2 21 -6 39.5t-13 32.5t-22.5 22t-32.5 8q-30 0 -47 -23t-17 -54q0 -28 14.5 -60t54.5 -71l83 -81q26 -26 43.5 -49.5t28 -47.5t15 -49.5t4.5 -54.5q0 -38 -11.5 -71.5t-33.5 -58.5t-55.5 -39.5t-76.5 -14.5q-75 0 -122 45t-56 131l97 31q5 -51 24.5 -85.5
t57.5 -34.5q28 0 51 22.5t23 67.5q0 30 -15.5 64.5t-56.5 75.5l-80 79q-50 49 -70.5 95t-20.5 100q0 41 13.5 73.5t36.5 55t52.5 34.5t61.5 12q76 0 121 -43t47 -118z" />
    <glyph glyph-name="T" unicode="T" 
d="M153 644h-130v92h362v-92h-130v-644h-102v644z" />
    <glyph glyph-name="U" unicode="U" horiz-adv-x="462" 
d="M406 182q0 -57 -13 -94.5t-36.5 -60.5t-55.5 -32.5t-69 -9.5q-38 0 -70.5 9.5t-56 32.5t-36.5 60.5t-13 94.5v554h102v-553q0 -17 2.5 -36t10.5 -34.5t22.5 -25.5t38.5 -10q23 0 37 10t22 25.5t10.5 34.5t2.5 36v553h102v-554z" />
    <glyph glyph-name="V" unicode="V" horiz-adv-x="407" 
d="M127 736l80 -518h2l76 518h102l-132 -736h-97l-138 736h107z" />
    <glyph glyph-name="W" unicode="W" horiz-adv-x="630" 
d="M613 736l-126 -736h-97l-74 520h-2l-74 -520h-97l-126 736h107l69 -518h2l66 518h107l67 -518h2l74 518h102z" />
    <glyph glyph-name="X" unicode="X" horiz-adv-x="407" 
d="M31 736h107l62 -236h2l67 236h107l-122 -354l133 -382h-107l-78 267h-2l-73 -267h-107l132 382z" />
    <glyph glyph-name="Y" unicode="Y" horiz-adv-x="407" 
d="M127 736l80 -307h2l76 307h102l-130 -439v-297h-102v297l-135 439h107z" />
    <glyph glyph-name="Z" unicode="Z" horiz-adv-x="407" 
d="M387 736l-230 -649h211v-87h-348l231 649h-208v87h344z" />
    <glyph glyph-name="bracketleft" unicode="[" horiz-adv-x="296" 
d="M253 675h-63v-742h63v-87h-160v916h160v-87z" />
    <glyph glyph-name="backslash" unicode="\" horiz-adv-x="296" 
d="M90 751l190 -766h-74l-190 766h74z" />
    <glyph glyph-name="bracketright" unicode="]" horiz-adv-x="296" 
d="M43 -67h63v742h-63v87h160v-916h-160v87z" />
    <glyph glyph-name="asciicircum" unicode="^" horiz-adv-x="600" 
d="M55 279l210 424h68l212 -424h-74l-173 342l-169 -342h-74z" />
    <glyph glyph-name="underscore" unicode="_" horiz-adv-x="500" 
d="M0 -125v50h500v-50h-500z" />
    <glyph glyph-name="grave" unicode="`" horiz-adv-x="204" 
d="M88 736l73 -136h-74l-114 136h115z" />
    <glyph glyph-name="a" unicode="a" horiz-adv-x="389" 
d="M251 0v79h-2q-21 -48 -47.5 -68t-64.5 -20q-14 0 -33 5.5t-36 21.5t-29 46t-12 79q0 53 10.5 89.5t33.5 59t58.5 32t85.5 9.5h36v69q0 27 -13.5 45t-47.5 18q-29 0 -43.5 -16.5t-18.5 -51.5l-86 24q6 36 19.5 60.5t34 39t45.5 20.5t54 6q70 0 109 -33t39 -108v-406h-92z
M124 155q0 -36 10 -59t42 -23q11 0 24 6.5t24.5 21t19 36t7.5 51.5v71h-25q-35 0 -55 -9t-30.5 -23.5t-13.5 -33.5t-3 -38z" />
    <glyph glyph-name="b" unicode="b" 
d="M53 736h92v-282h2q17 50 41 71.5t62 21.5q24 0 46 -12t39 -43t27 -85t10 -137q0 -129 -31 -204t-94 -75q-40 0 -63 25t-37 72l-2 1v-89h-92v736zM145 269q0 -62 6 -99.5t15 -58t20 -27t22 -6.5q10 0 21 6.5t20 27t15 58t6 99.5t-6 99.5t-15 58t-20 27t-21 6.5
q-11 0 -22 -6.5t-20 -27t-15 -58t-6 -99.5z" />
    <glyph glyph-name="c" unicode="c" horiz-adv-x="352" 
d="M232 381q-1 39 -10.5 59t-33.5 20q-12 0 -22 -6.5t-17.5 -27t-11.5 -58t-4 -100.5q0 -93 12.5 -141.5t43.5 -48.5q24 0 36 20.5t17 71.5l87 -30q-11 -74 -43.5 -111.5t-96.5 -37.5q-78 0 -115.5 64.5t-37.5 204.5q0 150 37.5 218.5t119.5 68.5q35 0 59.5 -13.5t40 -34.5
t23 -47t8.5 -51z" />
    <glyph glyph-name="d" unicode="d" 
d="M263 89l-2 -1q-14 -47 -37 -72t-63 -25q-63 0 -94 75t-31 204q0 83 10 137t27 85t39 43t46 12q38 0 62 -21.5t41 -71.5h2v282h92v-736h-92v89zM138 269q0 -62 6 -99.5t15 -58t20 -27t21 -6.5t21.5 6.5t20.5 27t15 58t6 99.5t-6 99.5t-15 58t-20.5 27t-21.5 6.5t-21 -6.5
t-20 -27t-15 -58t-6 -99.5z" />
    <glyph glyph-name="e" unicode="e" horiz-adv-x="407" 
d="M139 259q0 -36 2 -69.5t9 -59.5t20.5 -41.5t37.5 -15.5q17 0 28.5 9t18.5 23.5t10 31t4 31.5h87q0 -34 -9.5 -66t-28 -56.5t-46.5 -39.5t-66 -15q-42 0 -73 15.5t-51.5 50t-30 90.5t-9.5 136q0 138 44 201t122 63q72 0 114.5 -54.5t42.5 -156.5v-77h-226zM273 333
q0 24 -3.5 47.5t-11 42.5t-21 30.5t-32.5 11.5q-20 0 -32.5 -11.5t-20 -30.5t-10.5 -42.5t-3 -47.5h134z" />
    <glyph glyph-name="f" unicode="f" horiz-adv-x="241" 
d="M169 0h-97v451h-52v87h52v80q0 30 4 53.5t15 40t31 25t53 8.5q28 0 46 -3v-92q-6 3 -18 3q-14 0 -24 -9.5t-10 -32.5v-73h52v-87h-52v-451z" />
    <glyph glyph-name="g" unicode="g" 
d="M355 538v-571q0 -35 -10.5 -64.5t-31 -52t-51 -35t-71.5 -12.5q-54 0 -89.5 17.5t-60.5 55.5l78 54q11 -19 29.5 -32t42.5 -13q43 0 57.5 38.5t14.5 118.5v46h-2q-14 -47 -37 -72t-63 -25q-63 0 -94 75t-31 204q0 83 10 137t27 85t39 43t46 12q43 0 67 -25t41 -72h2v88
h87zM263 269q0 62 -6 99.5t-15 58t-20.5 27t-21.5 6.5t-21 -6.5t-20 -27t-15 -58t-6 -99.5t6 -99.5t15 -58t20 -27t21 -6.5t21.5 6.5t20.5 27t15 58t6 99.5z" />
    <glyph glyph-name="h" unicode="h" horiz-adv-x="407" 
d="M53 736h97v-259h2q14 29 38.5 49.5t62.5 20.5q20 0 38.5 -9t32.5 -24.5t22 -37.5t8 -48v-428h-97v389q0 32 -13.5 49t-33.5 17q-29 0 -44.5 -23.5t-15.5 -52.5v-379h-97v736z" />
    <glyph glyph-name="i" unicode="i" horiz-adv-x="203" 
d="M39 662q0 26 18 44t44 18t44.5 -18t18.5 -44t-18.5 -44.5t-44.5 -18.5t-44 18.5t-18 44.5zM53 538h97v-538h-97v538z" />
    <glyph glyph-name="j" unicode="j" horiz-adv-x="203" 
d="M39 662q0 26 18 44t44 18t44.5 -18t18.5 -44t-18.5 -44.5t-44.5 -18.5t-44 18.5t-18 44.5zM150 538v-582q0 -41 -9 -69t-25 -45.5t-37.5 -25t-45.5 -7.5q-9 0 -20.5 2t-20.5 5v92q10 -7 20 -7q21 0 31 18t10 51v568h97z" />
    <glyph glyph-name="k" unicode="k" horiz-adv-x="352" 
d="M53 736h97v-419h2l84 221h97l-94 -227l95 -311h-97l-85 278h-2v-278h-97v736z" />
    <glyph glyph-name="l" unicode="l" horiz-adv-x="222" 
d="M53 736h97v-588q0 -32 14 -48.5t49 -16.5h10v-92h-36q-30 0 -54.5 7t-42.5 23t-27.5 42t-9.5 64v609z" />
    <glyph glyph-name="m" unicode="m" horiz-adv-x="629" 
d="M53 538h92v-81h2q17 42 43 66t64 24q39 0 60.5 -23.5t35.5 -65.5h2q5 15 14 30.5t22.5 28.5t33 21.5t46.5 8.5q51 0 79.5 -33t28.5 -84v-430h-97v377q0 31 -11.5 54.5t-40.5 23.5q-34 0 -49 -28t-15 -68v-359h-97v377q0 31 -11.5 54.5t-40.5 23.5q-34 0 -49 -28t-15 -68
v-359h-97v538z" />
    <glyph glyph-name="n" unicode="n" horiz-adv-x="407" 
d="M53 538h92v-73h2q18 45 44.5 63.5t62.5 18.5q20 0 38 -9t32 -24.5t22 -37.5t8 -48v-428h-97v389q0 32 -13.5 49t-33.5 17q-29 0 -44.5 -23.5t-15.5 -52.5v-379h-97v538z" />
    <glyph glyph-name="o" unicode="o" 
d="M204 -9q-48 0 -80 22t-51.5 59.5t-28 88t-8.5 108.5t8.5 108.5t28 88t51.5 59.5t80 22t80 -22t51.5 -59.5t28 -88t8.5 -108.5t-8.5 -108.5t-28 -88t-51.5 -59.5t-80 -22zM204 73q66 0 66 222q0 37 -3 68t-10.5 53.5t-20.5 35.5t-32 13t-32 -13t-20.5 -35.5t-10.5 -53.5
t-3 -68q0 -222 66 -222z" />
    <glyph glyph-name="p" unicode="p" 
d="M53 538h87v-88h2q17 47 41 72t67 25q24 0 46 -12t39 -43t27 -85t10 -137q0 -129 -31 -204t-94 -75q-40 0 -63 25t-37 72l-2 1v-280h-92v729zM145 269q0 -62 6 -99.5t15 -58t20 -27t22 -6.5q10 0 21 6.5t20 27t15 58t6 99.5t-6 99.5t-15 58t-20 27t-21 6.5q-11 0 -22 -6.5
t-20 -27t-15 -58t-6 -99.5z" />
    <glyph glyph-name="q" unicode="q" 
d="M263 89l-2 -1q-14 -47 -37 -72t-63 -25q-63 0 -94 75t-31 204q0 83 10 137t27 85t39 43t46 12q43 0 67 -25t41 -72h2v88h87v-729h-92v280zM138 269q0 -62 6 -99.5t15 -58t20 -27t21 -6.5t21.5 6.5t20.5 27t15 58t6 99.5t-6 99.5t-15 58t-20.5 27t-21.5 6.5t-21 -6.5
t-20 -27t-15 -58t-6 -99.5z" />
    <glyph glyph-name="r" unicode="r" horiz-adv-x="296" 
d="M53 538h92v-98h2q4 18 12 36.5t22 33.5t34.5 25t47.5 12h1v-112q-13 5 -29 5q-14 0 -29 -5.5t-27.5 -20t-20.5 -39t-8 -61.5v-314h-97v538z" />
    <glyph glyph-name="s" unicode="s" horiz-adv-x="352" 
d="M109 148q1 -29 18 -52t48 -23q27 0 41 17t14 37t-12.5 41.5t-47.5 48.5l-51 40q-50 39 -69 72t-19 76q0 33 11 59.5t30 44.5t45.5 28t56.5 10q62 0 96 -30.5t51 -74.5l-83 -50q-2 29 -17.5 51t-47.5 22q-23 0 -36.5 -13.5t-13.5 -35.5q0 -17 11 -34.5t49 -45.5l61 -47
q48 -37 65.5 -74t17.5 -77q0 -30 -10 -56.5t-29.5 -46.5t-48.5 -32t-66 -12q-54 0 -89.5 24t-58.5 80z" />
    <glyph glyph-name="t" unicode="t" horiz-adv-x="241" 
d="M221 451h-52v-317q0 -42 40 -42h12v-87q-12 -2 -23.5 -3.5t-22.5 -1.5q-47 0 -75 23t-28 74v354h-52v87h52v134h97v-134h52v-87z" />
    <glyph glyph-name="u" unicode="u" horiz-adv-x="407" 
d="M354 0h-92v73h-2q-18 -45 -44.5 -63.5t-62.5 -18.5q-20 0 -38 8.5t-32 24.5t-22 38t-8 48v428h97v-389q0 -32 13.5 -49t33.5 -17q29 0 44.5 23.5t15.5 52.5v379h97v-538z" />
    <glyph glyph-name="v" unicode="v" horiz-adv-x="352" 
d="M332 538l-110 -538h-92l-110 538h102l57 -352h2l54 352h97z" />
    <glyph glyph-name="w" unicode="w" horiz-adv-x="519" 
d="M405 0h-92l-53 408h-2l-52 -408h-92l-94 538h97l47 -352h2l45 352h97l49 -352h2l43 352h97z" />
    <glyph glyph-name="x" unicode="x" horiz-adv-x="352" 
d="M127 538l51 -173h2l49 173h92l-99 -256l107 -282h-97l-58 196h-2l-52 -196h-97l107 281l-105 257h102z" />
    <glyph glyph-name="y" unicode="y" horiz-adv-x="352" 
d="M332 538l-150 -729h-97l48 216l-113 513h97l65 -353h2l51 353h97z" />
    <glyph glyph-name="z" unicode="z" horiz-adv-x="352" 
d="M199 451h-173v87h298v-12l-169 -434h171v-92h-298v12z" />
    <glyph glyph-name="braceleft" unicode="{" horiz-adv-x="296" 
d="M276 -154h-45q-57 0 -91 34t-34 102v169q0 27 -6 48.5t-15 37.5t-21 24.5t-24 8.5v68q12 0 24 8.5t21 24.5t15 37.5t6 48.5v169q0 34 10 59.5t27.5 42.5t40 25.5t47.5 8.5h45v-63h-22q-27 0 -39 -21.5t-12 -54.5v-161q1 -43 -10.5 -72.5t-28.5 -47.5t-35.5 -26.5
t-31.5 -10.5v-2q13 -2 31.5 -10.5t35.5 -26.5t28.5 -47.5t10.5 -72.5v-161q0 -17 1.5 -30.5t6.5 -24t15.5 -16t27.5 -5.5h22v-63z" />
    <glyph glyph-name="bar" unicode="|" horiz-adv-x="222" 
d="M74 750h74v-1000h-74v1000z" />
    <glyph glyph-name="braceright" unicode="}" horiz-adv-x="296" 
d="M20 762h45q57 0 91 -34t34 -102v-169q0 -27 6 -48.5t15 -37.5t21 -24.5t24 -8.5v-68q-12 0 -24 -8.5t-21 -24.5t-15 -37.5t-6 -48.5v-169q0 -34 -10.5 -59.5t-27.5 -42.5t-39.5 -25.5t-47.5 -8.5h-45v63h22q27 0 39 21.5t12 54.5v161q-1 43 10.5 72.5t28.5 47.5
t35.5 26.5t31.5 10.5v2q-13 2 -31.5 10.5t-35.5 26.5t-28.5 47.5t-10.5 72.5v161q0 33 -8.5 54.5t-42.5 21.5h-22v63z" />
    <glyph glyph-name="asciitilde" unicode="~" horiz-adv-x="600" 
d="M531 266q-27 -42 -56 -63t-69 -21q-24 0 -48 7t-58 26q-30 17 -56.5 26t-51.5 9q-30 0 -50.5 -18.5t-36.5 -55.5l-36 64q24 45 55.5 64.5t69.5 19.5q20 0 50 -7.5t60 -22.5q44 -22 66.5 -30t36.5 -8q26 0 46.5 21t41.5 53z" />
    <glyph glyph-name="uni00A0" unicode="&#xa0;" horiz-adv-x="240" 
 />
    <glyph glyph-name="exclamdown" unicode="&#xa1;" horiz-adv-x="240" 
d="M180 500q0 -25 -17.5 -42.5t-42.5 -17.5t-42.5 17.5t-17.5 42.5t17.5 42.5t42.5 17.5t42.5 -17.5t17.5 -42.5zM64 -182l19 546h74l19 -546h-112z" />
    <glyph glyph-name="cent" unicode="&#xa2;" 
d="M356 140q-9 -66 -35.5 -103t-77.5 -46v-77h-52v77q-65 12 -96.5 77t-31.5 192q0 136 30.5 204.5t97.5 82.5v70h52v-70q28 -5 48.5 -19.5t33.5 -35t19 -44.5t7 -47l-92 -20q-1 39 -10.5 59t-33.5 20q-12 0 -22 -6.5t-17.5 -27t-11.5 -58t-4 -100.5q0 -93 12.5 -141.5
t43.5 -48.5q24 0 36 20.5t17 71.5z" />
    <glyph glyph-name="sterling" unicode="&#xa3;" 
d="M25 388h91q-30 46 -41.5 88.5t-11.5 75.5q0 39 13.5 69.5t37.5 51t56.5 31.5t70.5 11q41 0 71.5 -13.5t51 -37.5t30.5 -57.5t10 -72.5v-24h-102q0 24 -3.5 45.5t-12 37.5t-22 25.5t-34.5 9.5q-33 0 -49 -22.5t-16 -51.5q0 -26 12.5 -64.5t50.5 -101.5h138v-52h-115
q10 -28 10 -58q0 -47 -23.5 -78t-73.5 -60l-1 -4q25 0 45 -9t37.5 -19.5t34.5 -19t36 -8.5q43 0 88 46v-105q-24 -14 -50.5 -23.5t-52.5 -9.5q-33 0 -56.5 11.5t-42 25.5t-35 25.5t-36.5 11.5q-26 0 -35.5 -17t-9.5 -45h-82q1 32 5.5 54t15.5 39.5t30 33t49 33.5
q35 21 45 46t10 49q0 17 -5 38.5t-14 42.5h-115v52z" />
    <glyph glyph-name="currency" unicode="&#xa4;" 
d="M6 190l42 42q-42 51 -42 119q0 35 10.5 64.5t30.5 55.5l-41 41l37 37l40 -41q25 19 55.5 30t65.5 11q34 0 64 -11t56 -30l41 41l37 -37l-41 -41q19 -25 30 -55t11 -65q0 -68 -42 -119l42 -42l-37 -37l-41 42q-24 -20 -55 -31t-65 -11q-35 0 -65.5 11t-54.5 31l-41 -42z
M80 351q0 -26 10 -48.5t26.5 -39t39 -26.5t48.5 -10q25 0 48 10t39.5 26.5t26.5 39t10 48.5q0 25 -10 48t-26.5 39.5t-39.5 26.5t-48 10q-26 0 -48.5 -10t-39 -26.5t-26.5 -39.5t-10 -48z" />
    <glyph glyph-name="yen" unicode="&#xa5;" 
d="M160 186h-128v52h128v76h-128v52h109l-121 337h102l85 -307h2l82 307h97l-118 -337h105v-52h-123v-76h123v-52h-123v-186h-92v186z" />
    <glyph glyph-name="brokenbar" unicode="&#xa6;" horiz-adv-x="222" 
d="M74 675h74v-350h-74v350zM74 175h74v-350h-74v350z" />
    <glyph glyph-name="section" unicode="&#xa7;" horiz-adv-x="463" 
d="M312 616q-15 26 -30 37t-37 11q-23 0 -38 -14t-15 -37q0 -14 3.5 -25.5t14 -25t30 -29.5t50.5 -38q37 -26 63.5 -49t43 -45t24.5 -44.5t8 -48.5q0 -54 -31 -92.5t-82 -47.5q29 -19 47.5 -48.5t18.5 -77.5q0 -30 -12 -56t-33 -44.5t-50 -29t-63 -10.5q-38 0 -73 14.5
t-70 56.5l67 73q20 -35 40 -46t40 -11q22 0 39.5 15t17.5 39q0 13 -4 24t-14.5 23t-28.5 26t-45 33q-47 33 -78 59t-49 50t-25 47.5t-7 51.5q0 55 32.5 91.5t89.5 41.5l-2 2q-29 19 -44 50.5t-15 70.5q0 29 11 54t30.5 44t46.5 29.5t60 10.5q37 0 71 -12t68 -56zM327 299
q0 23 -16.5 46t-39.5 42q-26 20 -45 27.5t-37 7.5q-23 0 -40.5 -17t-17.5 -40q0 -16 8.5 -32.5t31.5 -40.5q52 -54 95 -54q4 0 14 2.5t20.5 9t18.5 18.5t8 31z" />
    <glyph glyph-name="dieresis" unicode="&#xa8;" horiz-adv-x="204" 
d="M126 670q0 25 17.5 42.5t42.5 17.5t42.5 -17.5t17.5 -42.5t-17.5 -42.5t-42.5 -17.5t-42.5 17.5t-17.5 42.5zM-42 670q0 25 17.5 42.5t42.5 17.5t42.5 -17.5t17.5 -42.5t-17.5 -42.5t-42.5 -17.5t-42.5 17.5t-17.5 42.5z" />
    <glyph glyph-name="copyright" unicode="&#xa9;" horiz-adv-x="800" 
d="M17 368q0 79 30 149t82 122t121.5 82t149.5 30q79 0 149 -30t122 -82t82 -122t30 -149q0 -80 -30 -149.5t-82 -121.5t-122 -82t-149 -30q-80 0 -149.5 30t-121.5 82t-82 121.5t-30 149.5zM91 368q0 -64 24 -120.5t66 -98.5t98.5 -66t120.5 -24t120.5 24t98.5 66t66 98.5
t24 120.5t-24 120.5t-66 98.5t-98.5 66t-120.5 24t-120.5 -24t-98.5 -66t-66 -98.5t-24 -120.5zM533 444q-9 42 -41.5 69t-81.5 27q-36 0 -63.5 -13.5t-46.5 -36.5t-28.5 -54t-9.5 -67q0 -33 10.5 -64.5t30 -55.5t47 -38.5t62.5 -14.5q50 0 82 29t39 72h68q-7 -38 -24 -68.5
t-41.5 -51.5t-55.5 -32.5t-66 -11.5q-51 0 -92.5 18t-71.5 50t-46 75t-16 93t15.5 93t44.5 74.5t70 49t93 17.5q36 0 68 -10.5t57.5 -30.5t42.5 -49.5t22 -68.5h-68z" />
    <glyph glyph-name="ordfeminine" unicode="&#xaa;" horiz-adv-x="253" 
d="M170 387v47l-2 1q-13 -29 -31.5 -41.5t-51.5 -12.5q-9 0 -21 3t-23 13t-18.5 28.5t-7.5 49.5q0 65 28 90t93 25h34v29q0 17 -9.5 27.5t-35.5 10.5q-23 0 -33.5 -10t-12.5 -31l-64 15q7 50 36 67t76 17q57 0 84 -19.5t27 -64.5v-244h-68zM154 538q-22 0 -35 -5t-19.5 -13
t-8.5 -18t-2 -20q0 -18 6 -30.5t26 -12.5q15 0 32 15t17 49v35h-16z" />
    <glyph glyph-name="guillemotleft" unicode="&#xab;" horiz-adv-x="407" 
d="M284 435h97l-97 -155l97 -149h-97l-92 149zM118 435h97l-97 -155l97 -149h-97l-92 149z" />
    <glyph glyph-name="logicalnot" unicode="&#xac;" horiz-adv-x="600" 
d="M479 318h-432v74h506v-284h-74v210z" />
    <glyph glyph-name="uni00AD" unicode="&#xad;" horiz-adv-x="296" 
d="M245 327v-87h-194v87h194z" />
    <glyph glyph-name="registered" unicode="&#xae;" horiz-adv-x="800" 
d="M17 368q0 79 30 149t82 122t121.5 82t149.5 30q79 0 149 -30t122 -82t82 -122t30 -149q0 -80 -30 -149.5t-82 -121.5t-122 -82t-149 -30q-80 0 -149.5 30t-121.5 82t-82 121.5t-30 149.5zM91 368q0 -64 24 -120.5t66 -98.5t98.5 -66t120.5 -24t120.5 24t98.5 66t66 98.5
t24 120.5t-24 120.5t-66 98.5t-98.5 66t-120.5 24t-120.5 -24t-98.5 -66t-66 -98.5t-24 -120.5zM320 147h-68v443h169q78 0 116.5 -30.5t38.5 -95.5q0 -60 -32.5 -87.5t-81.5 -34.5l125 -195h-80l-119 193h-68v-193zM399 398q21 0 41 1.5t35 8.5t24 21t9 39q0 20 -8.5 32.5
t-22.5 19.5t-31 9.5t-35 2.5h-91v-134h79z" />
    <glyph glyph-name="macron" unicode="&#xaf;" horiz-adv-x="204" 
d="M237 684v-68h-270v68h270z" />
    <glyph glyph-name="degree" unicode="&#xb0;" horiz-adv-x="400" 
d="M57 572q0 30 11 56t30.5 45.5t45.5 30.5t56 11t56 -11t45.5 -30.5t30.5 -45.5t11 -56t-11 -56t-30.5 -45.5t-45.5 -30.5t-56 -11t-56 11t-45.5 30.5t-30.5 45.5t-11 56zM115 572q0 -35 25 -60t60 -25t60 25t25 60t-25 60t-60 25t-60 -25t-25 -60z" />
    <glyph glyph-name="plusminus" unicode="&#xb1;" horiz-adv-x="600" 
d="M263 506h74v-161h216v-74h-216v-161h-74v161h-216v74h216v161zM47 74h506v-74h-506v74z" />
    <glyph glyph-name="uni00B2" unicode="&#xb2;" horiz-adv-x="265" 
d="M243 349v-63h-230l104 188q27 49 41 81.5t14 51.5q0 18 -9.5 31.5t-25.5 13.5q-23 0 -32.5 -20t-11.5 -55h-82q0 30 5.5 55t20 43.5t38.5 29t60 10.5q31 0 54 -9t37 -23.5t21 -32.5t7 -37q0 -38 -24.5 -88t-60.5 -110l-40 -66h114z" />
    <glyph glyph-name="uni00B3" unicode="&#xb3;" horiz-adv-x="265" 
d="M131 652h-104v63h219v-8l-104 -154h2q4 2 9.5 2h10.5q45 0 65 -36.5t20 -102.5q0 -62 -31 -100t-90 -38t-85.5 34t-26.5 97h74q0 -31 9 -49.5t32 -18.5q26 0 35 24.5t9 56.5q0 35 -12.5 58t-39.5 23q-21 0 -37 -20l-46 32z" />
    <glyph glyph-name="acute" unicode="&#xb4;" horiz-adv-x="204" 
d="M116 736h115l-114 -136h-74z" />
    <glyph glyph-name="mu" unicode="&#xb5;" horiz-adv-x="407" 
d="M354 0h-92v73h-2q-19 -48 -46.5 -65.5t-63.5 -16.5v-182h-97v729h97v-389q0 -32 13.5 -49t33.5 -17q29 0 44.5 23.5t15.5 52.5v379h97v-538z" />
    <glyph glyph-name="paragraph" unicode="&#xb6;" horiz-adv-x="463" 
d="M161 387q-28 0 -54.5 11.5t-47 33.5t-33 53.5t-12.5 71.5q0 94 47 136.5t128 42.5h189v-819h-74v756h-69v-756h-74v470z" />
    <glyph glyph-name="periodcentered" unicode="&#xb7;" horiz-adv-x="240" 
d="M49 319q0 29 21 50t50 21t50 -21t21 -50t-21 -50t-50 -21t-50 21t-21 50z" />
    <glyph glyph-name="cedilla" unicode="&#xb8;" horiz-adv-x="204" 
d="M15 -156q21 32 31 64t12 66h87q-3 -31 -19 -68t-37 -62h-74z" />
    <glyph glyph-name="uni00B9" unicode="&#xb9;" horiz-adv-x="244" 
d="M93 614q-4 -5 -11.5 -10t-16 -9.5t-17.5 -8.5t-15 -6v65q28 13 58 32t52 38h24v-429h-74v328z" />
    <glyph glyph-name="ordmasculine" unicode="&#xba;" horiz-adv-x="266" 
d="M15 547q0 35 5.5 66t19 53.5t36.5 35.5t57 13t57 -13t36.5 -35.5t19 -53.5t5.5 -66t-5.5 -65t-19 -52.5t-36.5 -35.5t-57 -13t-57 13t-36.5 35.5t-19 52.5t-5.5 65zM97 553q0 -57 6.5 -85.5t29.5 -28.5t29.5 28.5t6.5 85.5q0 46 -5.5 75t-30.5 29q-13 0 -20 -7.5
t-10.5 -21.5t-4.5 -33t-1 -42z" />
    <glyph glyph-name="guillemotright" unicode="&#xbb;" horiz-adv-x="407" 
d="M192 131l97 155l-97 149h97l92 -149l-92 -155h-97zM26 131l97 155l-97 149h97l92 -149l-92 -155h-97z" />
    <glyph glyph-name="onequarter" unicode="&#xbc;" horiz-adv-x="610" 
d="M527 723l-431 -743h-64l431 743h64zM84 614q-4 -5 -11.5 -10t-16 -9.5t-17.5 -8.5t-15 -6v65q28 13 58 32t52 38h24v-429h-74v328zM536 421v-289h49v-63h-49v-69h-68v69h-141v53l136 299h73zM468 132v182h-2l-78 -182h80z" />
    <glyph glyph-name="onehalf" unicode="&#xbd;" horiz-adv-x="610" 
d="M527 723l-431 -743h-64l431 743h64zM84 614q-4 -5 -11.5 -10t-16 -9.5t-17.5 -8.5t-15 -6v65q28 13 58 32t52 38h24v-429h-74v328zM574 63v-63h-230l104 188q27 49 41 81.5t14 51.5q0 18 -9.5 31.5t-25.5 13.5q-23 0 -32.5 -20t-11.5 -55h-82q0 30 5.5 55t20 43.5
t38.5 29t60 10.5q31 0 54 -9t37 -23.5t21 -32.5t7 -37q0 -38 -24.5 -88t-60.5 -110l-40 -66h114z" />
    <glyph glyph-name="threequarters" unicode="&#xbe;" horiz-adv-x="610" 
d="M567 723l-431 -743h-64l431 743h64zM131 652h-104v63h219v-8l-104 -154h2q4 2 9.5 2h10.5q45 0 65 -36.5t20 -102.5q0 -62 -31 -100t-90 -38t-85.5 34t-26.5 97h74q0 -31 9 -49.5t32 -18.5q26 0 35 24.5t9 56.5q0 35 -12.5 58t-39.5 23q-21 0 -37 -20l-46 32zM545 421
v-289h49v-63h-49v-69h-68v69h-141v53l136 299h73zM477 132v182h-2l-78 -182h80z" />
    <glyph glyph-name="questiondown" unicode="&#xbf;" horiz-adv-x="352" 
d="M254 500q0 -25 -17.5 -42.5t-42.5 -17.5t-42.5 17.5t-17.5 42.5t17.5 42.5t42.5 17.5t42.5 -17.5t17.5 -42.5zM238 364q-2 -46 -4 -76t-6.5 -51t-11.5 -36.5t-17 -32.5l-42 -68q-11 -18 -18 -32.5t-11 -28.5t-5 -30t-1 -37q0 -43 11.5 -62.5t40.5 -19.5q18 0 29 10
t17 27.5t8 40t2 48.5h102v-16q0 -43 -9.5 -79t-29.5 -62.5t-51 -41t-73 -14.5q-30 0 -57 9.5t-47.5 30t-32.5 53t-12 78.5q0 23 2.5 41.5t7.5 36t14 35t23 37.5l44 66q12 18 19.5 35.5t12 38t6 44.5t2.5 56h87z" />
    <glyph glyph-name="Agrave" unicode="&#xc0;" horiz-adv-x="463" 
d="M175 736h102l166 -736h-107l-29 152h-161l-29 -152h-97zM292 234l-64 336h-2l-64 -336h130zM212 909l73 -136h-74l-114 136h115z" />
    <glyph glyph-name="Aacute" unicode="&#xc1;" horiz-adv-x="463" 
d="M175 736h102l166 -736h-107l-29 152h-161l-29 -152h-97zM292 234l-64 336h-2l-64 -336h130zM240 909h115l-114 -136h-74z" />
    <glyph glyph-name="Acircumflex" unicode="&#xc2;" horiz-adv-x="463" 
d="M175 736h102l166 -736h-107l-29 152h-161l-29 -152h-97zM292 234l-64 336h-2l-64 -336h130zM277 909l76 -136h-82l-49 78l-49 -78h-74l76 136h102z" />
    <glyph glyph-name="Atilde" unicode="&#xc3;" horiz-adv-x="463" 
d="M175 736h102l166 -736h-107l-29 152h-161l-29 -152h-97zM292 234l-64 336h-2l-64 -336h130zM361 890q0 -21 -6 -40t-17.5 -34t-27.5 -24t-35 -9q-10 0 -21 3.5t-37 15.5q-20 9 -29 11.5t-17 2.5q-12 0 -20 -6.5t-13 -26.5h-47q2 18 5.5 36t12.5 33q9 14 24 23t37 9
q10 0 22 -2.5t41 -12.5q22 -8 32 -10t15 -2q25 0 34 33h47z" />
    <glyph glyph-name="Adieresis" unicode="&#xc4;" horiz-adv-x="463" 
d="M175 736h102l166 -736h-107l-29 152h-161l-29 -152h-97zM292 234l-64 336h-2l-64 -336h130zM250 843q0 25 17.5 42.5t42.5 17.5t42.5 -17.5t17.5 -42.5t-17.5 -42.5t-42.5 -17.5t-42.5 17.5t-17.5 42.5zM82 843q0 25 17.5 42.5t42.5 17.5t42.5 -17.5t17.5 -42.5
t-17.5 -42.5t-42.5 -17.5t-42.5 17.5t-17.5 42.5z" />
    <glyph glyph-name="Aring" unicode="&#xc5;" horiz-adv-x="463" 
d="M175 736h102l166 -736h-107l-29 152h-161l-29 -152h-97zM292 234l-64 336h-2l-64 -336h130zM138 846q0 37 25.5 62.5t62.5 25.5t62.5 -25.5t25.5 -62.5t-25.5 -62.5t-62.5 -25.5t-62.5 25.5t-25.5 62.5zM180 846q0 -19 13.5 -32.5t32.5 -13.5t32.5 13.5t13.5 32.5
t-13.5 32.5t-32.5 13.5t-32.5 -13.5t-13.5 -32.5z" />
    <glyph glyph-name="AE" unicode="&#xc6;" horiz-adv-x="630" 
d="M594 736v-87h-183v-215h183v-87h-183v-255h183v-92h-285v152h-143l-44 -152h-102l227 736h347zM309 234v434h-2l-118 -434h120z" />
    <glyph glyph-name="Ccedilla" unicode="&#xc7;" horiz-adv-x="463" 
d="M320 549q-9 60 -29.5 85t-46.5 25q-30 0 -49.5 -24t-30.5 -63t-15.5 -90t-4.5 -105q0 -62 4 -116.5t15 -95.5t29.5 -64.5t48.5 -23.5q21 0 36.5 12.5t26.5 32.5t18 45.5t10 52.5l98 -35q-6 -41 -19.5 -77.5t-36.5 -63.5t-56.5 -43t-78.5 -16q-51 0 -88.5 21t-63 67.5
t-38 120t-12.5 179.5q0 36 2.5 78t10 84t21 81t37 69t57 48t80.5 18q66 0 110.5 -41t65.5 -127zM155 -156q21 32 31 64t12 66h87q-3 -31 -19 -68t-37 -62h-74z" />
    <glyph glyph-name="Egrave" unicode="&#xc8;" horiz-adv-x="352" 
d="M56 736h268v-87h-166v-215h166v-87h-166v-260h166v-87h-268v736zM168 909l73 -136h-74l-114 136h115z" />
    <glyph glyph-name="Eacute" unicode="&#xc9;" horiz-adv-x="352" 
d="M56 736h268v-87h-166v-215h166v-87h-166v-260h166v-87h-268v736zM196 909h115l-114 -136h-74z" />
    <glyph glyph-name="Ecircumflex" unicode="&#xca;" horiz-adv-x="352" 
d="M56 736h268v-87h-166v-215h166v-87h-166v-260h166v-87h-268v736zM233 909l76 -136h-82l-49 78l-49 -78h-74l76 136h102z" />
    <glyph glyph-name="Edieresis" unicode="&#xcb;" horiz-adv-x="352" 
d="M56 736h268v-87h-166v-215h166v-87h-166v-260h166v-87h-268v736zM206 843q0 25 17.5 42.5t42.5 17.5t42.5 -17.5t17.5 -42.5t-17.5 -42.5t-42.5 -17.5t-42.5 17.5t-17.5 42.5zM38 843q0 25 17.5 42.5t42.5 17.5t42.5 -17.5t17.5 -42.5t-17.5 -42.5t-42.5 -17.5
t-42.5 17.5t-17.5 42.5z" />
    <glyph glyph-name="Igrave" unicode="&#xcc;" horiz-adv-x="240" 
d="M69 736h102v-736h-102v736zM100 909l73 -136h-74l-114 136h115z" />
    <glyph glyph-name="Iacute" unicode="&#xcd;" horiz-adv-x="240" 
d="M69 736h102v-736h-102v736zM128 909h115l-114 -136h-74z" />
    <glyph glyph-name="Icircumflex" unicode="&#xce;" horiz-adv-x="240" 
d="M69 736h102v-736h-102v736zM165 909l76 -136h-82l-49 78l-49 -78h-74l76 136h102z" />
    <glyph glyph-name="Idieresis" unicode="&#xcf;" horiz-adv-x="240" 
d="M69 736h102v-736h-102v736zM138 843q0 25 17.5 42.5t42.5 17.5t42.5 -17.5t17.5 -42.5t-17.5 -42.5t-42.5 -17.5t-42.5 17.5t-17.5 42.5zM-30 843q0 25 17.5 42.5t42.5 17.5t42.5 -17.5t17.5 -42.5t-17.5 -42.5t-42.5 -17.5t-42.5 17.5t-17.5 42.5z" />
    <glyph glyph-name="Eth" unicode="&#xd0;" horiz-adv-x="463" 
d="M57 352h-55v82h55v302h119q73 0 120.5 -31.5t75.5 -84t39.5 -119.5t11.5 -139q0 -59 -10.5 -123t-37.5 -117t-73.5 -87.5t-117.5 -34.5h-127v352zM159 434h83v-82h-83v-265q46 0 76.5 22t48.5 60t25 89.5t7 110.5q0 137 -39.5 208.5t-117.5 71.5v-215z" />
    <glyph glyph-name="Ntilde" unicode="&#xd1;" horiz-adv-x="463" 
d="M56 736h102l150 -466h2v466h97v-736h-102l-150 466h-2v-466h-97v736zM367 890q0 -21 -6 -40t-17.5 -34t-27.5 -24t-35 -9q-10 0 -21 3.5t-37 15.5q-20 9 -29 11.5t-17 2.5q-12 0 -20 -6.5t-13 -26.5h-47q2 18 5.5 36t12.5 33q9 14 24 23t37 9q10 0 22 -2.5t41 -12.5
q22 -8 32 -10t15 -2q25 0 34 33h47z" />
    <glyph glyph-name="Ograve" unicode="&#xd2;" horiz-adv-x="463" 
d="M37 368q0 76 8 145.5t30 122t59.5 84t97.5 31.5q66 0 104.5 -33t58.5 -87t25.5 -123t5.5 -140q0 -76 -8 -145.5t-29.5 -122t-59.5 -84t-97 -31.5q-66 0 -105 33t-59 87t-25.5 123t-5.5 140zM144 352q0 -56 3.5 -106t13 -87.5t26.5 -59.5t45 -22q27 0 44 22.5t26.5 64
t13 99t3.5 128.5q0 84 -6.5 136t-18.5 81.5t-28 40t-34 10.5q-20 0 -36 -15t-27.5 -51t-18 -95t-6.5 -146zM218 909l73 -136h-74l-114 136h115z" />
    <glyph glyph-name="Oacute" unicode="&#xd3;" horiz-adv-x="463" 
d="M37 368q0 76 8 145.5t30 122t59.5 84t97.5 31.5q66 0 104.5 -33t58.5 -87t25.5 -123t5.5 -140q0 -76 -8 -145.5t-29.5 -122t-59.5 -84t-97 -31.5q-66 0 -105 33t-59 87t-25.5 123t-5.5 140zM144 352q0 -56 3.5 -106t13 -87.5t26.5 -59.5t45 -22q27 0 44 22.5t26.5 64
t13 99t3.5 128.5q0 84 -6.5 136t-18.5 81.5t-28 40t-34 10.5q-20 0 -36 -15t-27.5 -51t-18 -95t-6.5 -146zM246 909h115l-114 -136h-74z" />
    <glyph glyph-name="Ocircumflex" unicode="&#xd4;" horiz-adv-x="463" 
d="M37 368q0 76 8 145.5t30 122t59.5 84t97.5 31.5q66 0 104.5 -33t58.5 -87t25.5 -123t5.5 -140q0 -76 -8 -145.5t-29.5 -122t-59.5 -84t-97 -31.5q-66 0 -105 33t-59 87t-25.5 123t-5.5 140zM144 352q0 -56 3.5 -106t13 -87.5t26.5 -59.5t45 -22q27 0 44 22.5t26.5 64
t13 99t3.5 128.5q0 84 -6.5 136t-18.5 81.5t-28 40t-34 10.5q-20 0 -36 -15t-27.5 -51t-18 -95t-6.5 -146zM283 909l76 -136h-82l-49 78l-49 -78h-74l76 136h102z" />
    <glyph glyph-name="Otilde" unicode="&#xd5;" horiz-adv-x="463" 
d="M37 368q0 76 8 145.5t30 122t59.5 84t97.5 31.5q66 0 104.5 -33t58.5 -87t25.5 -123t5.5 -140q0 -76 -8 -145.5t-29.5 -122t-59.5 -84t-97 -31.5q-66 0 -105 33t-59 87t-25.5 123t-5.5 140zM144 352q0 -56 3.5 -106t13 -87.5t26.5 -59.5t45 -22q27 0 44 22.5t26.5 64
t13 99t3.5 128.5q0 84 -6.5 136t-18.5 81.5t-28 40t-34 10.5q-20 0 -36 -15t-27.5 -51t-18 -95t-6.5 -146zM367 890q0 -21 -6 -40t-17.5 -34t-27.5 -24t-35 -9q-10 0 -21 3.5t-37 15.5q-20 9 -29 11.5t-17 2.5q-12 0 -20 -6.5t-13 -26.5h-47q2 18 5.5 36t12.5 33q9 14 24 23
t37 9q10 0 22 -2.5t41 -12.5q22 -8 32 -10t15 -2q25 0 34 33h47z" />
    <glyph glyph-name="Odieresis" unicode="&#xd6;" horiz-adv-x="463" 
d="M37 368q0 76 8 145.5t30 122t59.5 84t97.5 31.5q66 0 104.5 -33t58.5 -87t25.5 -123t5.5 -140q0 -76 -8 -145.5t-29.5 -122t-59.5 -84t-97 -31.5q-66 0 -105 33t-59 87t-25.5 123t-5.5 140zM144 352q0 -56 3.5 -106t13 -87.5t26.5 -59.5t45 -22q27 0 44 22.5t26.5 64
t13 99t3.5 128.5q0 84 -6.5 136t-18.5 81.5t-28 40t-34 10.5q-20 0 -36 -15t-27.5 -51t-18 -95t-6.5 -146zM256 843q0 25 17.5 42.5t42.5 17.5t42.5 -17.5t17.5 -42.5t-17.5 -42.5t-42.5 -17.5t-42.5 17.5t-17.5 42.5zM88 843q0 25 17.5 42.5t42.5 17.5t42.5 -17.5
t17.5 -42.5t-17.5 -42.5t-42.5 -17.5t-42.5 17.5t-17.5 42.5z" />
    <glyph glyph-name="multiply" unicode="&#xd7;" horiz-adv-x="600" 
d="M71 431l51 51l178 -178l178 178l51 -51l-178 -178l178 -178l-51 -51l-178 178l-178 -178l-51 51l178 178z" />
    <glyph glyph-name="Oslash" unicode="&#xd8;" horiz-adv-x="463" 
d="M73 94q-23 54 -29.5 126.5t-6.5 147.5q0 76 8 145.5t30 122t59.5 84t97.5 31.5q45 0 76 -15.5t53 -42.5l34 71l44 -21l-49 -101q23 -55 29.5 -127t6.5 -147q0 -76 -8 -145.5t-29.5 -122t-59.5 -84t-97 -31.5q-45 0 -76.5 15.5t-52.5 43.5l-35 -72l-44 21zM304 575
q-12 50 -31 67t-41 17q-20 0 -36 -15t-27.5 -51t-18 -95t-6.5 -146q0 -28 0.5 -54t1.5 -50h2zM160 162q9 -40 26.5 -62.5t45.5 -22.5q27 0 44 22.5t26.5 64t13 99t3.5 128.5q0 56 -3 95h-2z" />
    <glyph glyph-name="Ugrave" unicode="&#xd9;" horiz-adv-x="462" 
d="M406 182q0 -57 -13 -94.5t-36.5 -60.5t-55.5 -32.5t-69 -9.5q-38 0 -70.5 9.5t-56 32.5t-36.5 60.5t-13 94.5v554h102v-553q0 -17 2.5 -36t10.5 -34.5t22.5 -25.5t38.5 -10q23 0 37 10t22 25.5t10.5 34.5t2.5 36v553h102v-554zM211 909l73 -136h-74l-114 136h115z" />
    <glyph glyph-name="Uacute" unicode="&#xda;" horiz-adv-x="462" 
d="M406 182q0 -57 -13 -94.5t-36.5 -60.5t-55.5 -32.5t-69 -9.5q-38 0 -70.5 9.5t-56 32.5t-36.5 60.5t-13 94.5v554h102v-553q0 -17 2.5 -36t10.5 -34.5t22.5 -25.5t38.5 -10q23 0 37 10t22 25.5t10.5 34.5t2.5 36v553h102v-554zM239 909h115l-114 -136h-74z" />
    <glyph glyph-name="Ucircumflex" unicode="&#xdb;" horiz-adv-x="462" 
d="M406 182q0 -57 -13 -94.5t-36.5 -60.5t-55.5 -32.5t-69 -9.5q-38 0 -70.5 9.5t-56 32.5t-36.5 60.5t-13 94.5v554h102v-553q0 -17 2.5 -36t10.5 -34.5t22.5 -25.5t38.5 -10q23 0 37 10t22 25.5t10.5 34.5t2.5 36v553h102v-554zM276 909l76 -136h-82l-49 78l-49 -78h-74
l76 136h102z" />
    <glyph glyph-name="Udieresis" unicode="&#xdc;" horiz-adv-x="462" 
d="M406 182q0 -57 -13 -94.5t-36.5 -60.5t-55.5 -32.5t-69 -9.5q-38 0 -70.5 9.5t-56 32.5t-36.5 60.5t-13 94.5v554h102v-553q0 -17 2.5 -36t10.5 -34.5t22.5 -25.5t38.5 -10q23 0 37 10t22 25.5t10.5 34.5t2.5 36v553h102v-554zM249 843q0 25 17.5 42.5t42.5 17.5
t42.5 -17.5t17.5 -42.5t-17.5 -42.5t-42.5 -17.5t-42.5 17.5t-17.5 42.5zM81 843q0 25 17.5 42.5t42.5 17.5t42.5 -17.5t17.5 -42.5t-17.5 -42.5t-42.5 -17.5t-42.5 17.5t-17.5 42.5z" />
    <glyph glyph-name="Yacute" unicode="&#xdd;" horiz-adv-x="407" 
d="M127 736l80 -307h2l76 307h102l-130 -439v-297h-102v297l-135 439h107zM218 909h115l-114 -136h-74z" />
    <glyph glyph-name="Thorn" unicode="&#xde;" horiz-adv-x="407" 
d="M56 736h102v-119q50 0 90.5 -12.5t69.5 -39.5t45 -70.5t16 -105.5q0 -51 -12.5 -93.5t-38 -72.5t-63.5 -47t-90 -17h-17v-159h-102v736zM158 246q33 0 55 11.5t35 31t18.5 46t5.5 56.5q0 64 -27 101.5t-87 37.5v-284z" />
    <glyph glyph-name="germandbls" unicode="&#xdf;" horiz-adv-x="407" 
d="M53 573q0 34 8 65.5t25 55t44 37.5t65 14q40 0 69.5 -13.5t48.5 -37.5t28 -57.5t9 -72.5q0 -61 -17.5 -98.5t-65.5 -50.5v-2q36 -6 57.5 -24t33 -45t15 -60.5t3.5 -69.5q0 -34 -7 -73t-23.5 -72.5t-44.5 -55.5t-70 -22q-8 0 -14 1t-11 3l-16 92q7 -4 19 -4
q19 0 31.5 12.5t20 31.5t10.5 42t3 44q0 34 -3.5 62t-13.5 48t-27 31.5t-45 12.5v82q14 0 26.5 5t21.5 16t14.5 30t5.5 47q0 36 -4 58t-11.5 34t-17.5 15.5t-22 3.5q-24 0 -36 -19t-12 -51v-588h-97v573z" />
    <glyph glyph-name="agrave" unicode="&#xe0;" horiz-adv-x="389" 
d="M251 0v79h-2q-21 -48 -47.5 -68t-64.5 -20q-14 0 -33 5.5t-36 21.5t-29 46t-12 79q0 53 10.5 89.5t33.5 59t58.5 32t85.5 9.5h36v69q0 27 -13.5 45t-47.5 18q-29 0 -43.5 -16.5t-18.5 -51.5l-86 24q6 36 19.5 60.5t34 39t45.5 20.5t54 6q70 0 109 -33t39 -108v-406h-92z
M124 155q0 -36 10 -59t42 -23q11 0 24 6.5t24.5 21t19 36t7.5 51.5v71h-25q-35 0 -55 -9t-30.5 -23.5t-13.5 -33.5t-3 -38zM181 736l73 -136h-74l-114 136h115z" />
    <glyph glyph-name="aacute" unicode="&#xe1;" horiz-adv-x="389" 
d="M251 0v79h-2q-21 -48 -47.5 -68t-64.5 -20q-14 0 -33 5.5t-36 21.5t-29 46t-12 79q0 53 10.5 89.5t33.5 59t58.5 32t85.5 9.5h36v69q0 27 -13.5 45t-47.5 18q-29 0 -43.5 -16.5t-18.5 -51.5l-86 24q6 36 19.5 60.5t34 39t45.5 20.5t54 6q70 0 109 -33t39 -108v-406h-92z
M124 155q0 -36 10 -59t42 -23q11 0 24 6.5t24.5 21t19 36t7.5 51.5v71h-25q-35 0 -55 -9t-30.5 -23.5t-13.5 -33.5t-3 -38zM209 736h115l-114 -136h-74z" />
    <glyph glyph-name="acircumflex" unicode="&#xe2;" horiz-adv-x="389" 
d="M251 0v79h-2q-21 -48 -47.5 -68t-64.5 -20q-14 0 -33 5.5t-36 21.5t-29 46t-12 79q0 53 10.5 89.5t33.5 59t58.5 32t85.5 9.5h36v69q0 27 -13.5 45t-47.5 18q-29 0 -43.5 -16.5t-18.5 -51.5l-86 24q6 36 19.5 60.5t34 39t45.5 20.5t54 6q70 0 109 -33t39 -108v-406h-92z
M124 155q0 -36 10 -59t42 -23q11 0 24 6.5t24.5 21t19 36t7.5 51.5v71h-25q-35 0 -55 -9t-30.5 -23.5t-13.5 -33.5t-3 -38zM246 736l76 -136h-82l-49 78l-49 -78h-74l76 136h102z" />
    <glyph glyph-name="atilde" unicode="&#xe3;" horiz-adv-x="389" 
d="M251 0v79h-2q-21 -48 -47.5 -68t-64.5 -20q-14 0 -33 5.5t-36 21.5t-29 46t-12 79q0 53 10.5 89.5t33.5 59t58.5 32t85.5 9.5h36v69q0 27 -13.5 45t-47.5 18q-29 0 -43.5 -16.5t-18.5 -51.5l-86 24q6 36 19.5 60.5t34 39t45.5 20.5t54 6q70 0 109 -33t39 -108v-406h-92z
M124 155q0 -36 10 -59t42 -23q11 0 24 6.5t24.5 21t19 36t7.5 51.5v71h-25q-35 0 -55 -9t-30.5 -23.5t-13.5 -33.5t-3 -38zM330 717q0 -21 -6 -40t-17.5 -34t-27.5 -24t-35 -9q-10 0 -21 3.5t-37 15.5q-20 9 -29 11.5t-17 2.5q-12 0 -20 -6.5t-13 -26.5h-47q2 18 5.5 36
t12.5 33q9 14 24 23t37 9q10 0 22 -2.5t41 -12.5q22 -8 32 -10t15 -2q25 0 34 33h47z" />
    <glyph glyph-name="adieresis" unicode="&#xe4;" horiz-adv-x="389" 
d="M251 0v79h-2q-21 -48 -47.5 -68t-64.5 -20q-14 0 -33 5.5t-36 21.5t-29 46t-12 79q0 53 10.5 89.5t33.5 59t58.5 32t85.5 9.5h36v69q0 27 -13.5 45t-47.5 18q-29 0 -43.5 -16.5t-18.5 -51.5l-86 24q6 36 19.5 60.5t34 39t45.5 20.5t54 6q70 0 109 -33t39 -108v-406h-92z
M124 155q0 -36 10 -59t42 -23q11 0 24 6.5t24.5 21t19 36t7.5 51.5v71h-25q-35 0 -55 -9t-30.5 -23.5t-13.5 -33.5t-3 -38zM219 670q0 25 17.5 42.5t42.5 17.5t42.5 -17.5t17.5 -42.5t-17.5 -42.5t-42.5 -17.5t-42.5 17.5t-17.5 42.5zM51 670q0 25 17.5 42.5t42.5 17.5
t42.5 -17.5t17.5 -42.5t-17.5 -42.5t-42.5 -17.5t-42.5 17.5t-17.5 42.5z" />
    <glyph glyph-name="aring" unicode="&#xe5;" horiz-adv-x="389" 
d="M251 0v79h-2q-21 -48 -47.5 -68t-64.5 -20q-14 0 -33 5.5t-36 21.5t-29 46t-12 79q0 53 10.5 89.5t33.5 59t58.5 32t85.5 9.5h36v69q0 27 -13.5 45t-47.5 18q-29 0 -43.5 -16.5t-18.5 -51.5l-86 24q6 36 19.5 60.5t34 39t45.5 20.5t54 6q70 0 109 -33t39 -108v-406h-92z
M124 155q0 -36 10 -59t42 -23q11 0 24 6.5t24.5 21t19 36t7.5 51.5v71h-25q-35 0 -55 -9t-30.5 -23.5t-13.5 -33.5t-3 -38zM107 663q0 37 25.5 62.5t62.5 25.5t62.5 -25.5t25.5 -62.5t-25.5 -62.5t-62.5 -25.5t-62.5 25.5t-25.5 62.5zM149 663q0 -19 13.5 -32.5t32.5 -13.5
t32.5 13.5t13.5 32.5t-13.5 32.5t-32.5 13.5t-32.5 -13.5t-13.5 -32.5z" />
    <glyph glyph-name="ae" unicode="&#xe6;" horiz-adv-x="556" 
d="M325 259v-80q0 -47 13.5 -76.5t46.5 -29.5q24 0 37.5 19.5t17.5 77.5h87q-3 -32 -11 -64t-24 -57.5t-41.5 -41.5t-62.5 -16q-27 0 -46 7.5t-32 20.5t-21.5 29.5t-14.5 34.5q-23 -45 -52 -68.5t-75 -23.5q-36 0 -59.5 13.5t-37.5 35.5t-20 49t-6 54q0 53 10.5 89.5
t33.5 59t58.5 32t85.5 9.5h26v44q0 88 -57 88q-28 0 -41.5 -19t-17.5 -49l-84 24q9 58 43.5 92t100.5 34q39 0 68 -16t40 -42q20 29 42.5 43.5t52.5 14.5q71 0 109 -63t38 -176v-49h-207zM440 333q-1 24 -3 48t-8 42.5t-17 30t-30 11.5q-20 0 -31 -11.5t-16.5 -30t-7.5 -42
t-2 -48.5h115zM238 259q-64 0 -93 -21.5t-29 -81.5q0 -14 2.5 -29t9.5 -27t18 -19.5t28 -7.5q15 0 26.5 9t20 22.5t13 29t4.5 29.5v96z" />
    <glyph glyph-name="ccedilla" unicode="&#xe7;" horiz-adv-x="352" 
d="M232 381q-1 39 -10.5 59t-33.5 20q-12 0 -22 -6.5t-17.5 -27t-11.5 -58t-4 -100.5q0 -93 12.5 -141.5t43.5 -48.5q24 0 36 20.5t17 71.5l87 -30q-11 -74 -43.5 -111.5t-96.5 -37.5q-78 0 -115.5 64.5t-37.5 204.5q0 150 37.5 218.5t119.5 68.5q35 0 59.5 -13.5t40 -34.5
t23 -47t8.5 -51zM95 -151q21 32 31 64t12 66h87q-3 -31 -19 -68t-37 -62h-74z" />
    <glyph glyph-name="egrave" unicode="&#xe8;" horiz-adv-x="407" 
d="M139 259q0 -36 2 -69.5t9 -59.5t20.5 -41.5t37.5 -15.5q17 0 28.5 9t18.5 23.5t10 31t4 31.5h87q0 -34 -9.5 -66t-28 -56.5t-46.5 -39.5t-66 -15q-42 0 -73 15.5t-51.5 50t-30 90.5t-9.5 136q0 138 44 201t122 63q72 0 114.5 -54.5t42.5 -156.5v-77h-226zM273 333
q0 24 -3.5 47.5t-11 42.5t-21 30.5t-32.5 11.5q-20 0 -32.5 -11.5t-20 -30.5t-10.5 -42.5t-3 -47.5h134zM190 736l73 -136h-74l-114 136h115z" />
    <glyph glyph-name="eacute" unicode="&#xe9;" horiz-adv-x="407" 
d="M139 259q0 -36 2 -69.5t9 -59.5t20.5 -41.5t37.5 -15.5q17 0 28.5 9t18.5 23.5t10 31t4 31.5h87q0 -34 -9.5 -66t-28 -56.5t-46.5 -39.5t-66 -15q-42 0 -73 15.5t-51.5 50t-30 90.5t-9.5 136q0 138 44 201t122 63q72 0 114.5 -54.5t42.5 -156.5v-77h-226zM273 333
q0 24 -3.5 47.5t-11 42.5t-21 30.5t-32.5 11.5q-20 0 -32.5 -11.5t-20 -30.5t-10.5 -42.5t-3 -47.5h134zM218 736h115l-114 -136h-74z" />
    <glyph glyph-name="ecircumflex" unicode="&#xea;" horiz-adv-x="407" 
d="M139 259q0 -36 2 -69.5t9 -59.5t20.5 -41.5t37.5 -15.5q17 0 28.5 9t18.5 23.5t10 31t4 31.5h87q0 -34 -9.5 -66t-28 -56.5t-46.5 -39.5t-66 -15q-42 0 -73 15.5t-51.5 50t-30 90.5t-9.5 136q0 138 44 201t122 63q72 0 114.5 -54.5t42.5 -156.5v-77h-226zM273 333
q0 24 -3.5 47.5t-11 42.5t-21 30.5t-32.5 11.5q-20 0 -32.5 -11.5t-20 -30.5t-10.5 -42.5t-3 -47.5h134zM255 736l76 -136h-82l-49 78l-49 -78h-74l76 136h102z" />
    <glyph glyph-name="edieresis" unicode="&#xeb;" horiz-adv-x="407" 
d="M139 259q0 -36 2 -69.5t9 -59.5t20.5 -41.5t37.5 -15.5q17 0 28.5 9t18.5 23.5t10 31t4 31.5h87q0 -34 -9.5 -66t-28 -56.5t-46.5 -39.5t-66 -15q-42 0 -73 15.5t-51.5 50t-30 90.5t-9.5 136q0 138 44 201t122 63q72 0 114.5 -54.5t42.5 -156.5v-77h-226zM273 333
q0 24 -3.5 47.5t-11 42.5t-21 30.5t-32.5 11.5q-20 0 -32.5 -11.5t-20 -30.5t-10.5 -42.5t-3 -47.5h134zM228 670q0 25 17.5 42.5t42.5 17.5t42.5 -17.5t17.5 -42.5t-17.5 -42.5t-42.5 -17.5t-42.5 17.5t-17.5 42.5zM60 670q0 25 17.5 42.5t42.5 17.5t42.5 -17.5t17.5 -42.5
t-17.5 -42.5t-42.5 -17.5t-42.5 17.5t-17.5 42.5z" />
    <glyph glyph-name="igrave" unicode="&#xec;" horiz-adv-x="203" 
d="M53 538h97v-538h-97v538zM88 736l73 -136h-74l-114 136h115z" />
    <glyph glyph-name="iacute" unicode="&#xed;" horiz-adv-x="203" 
d="M53 538h97v-538h-97v538zM116 736h115l-114 -136h-74z" />
    <glyph glyph-name="icircumflex" unicode="&#xee;" horiz-adv-x="203" 
d="M53 538h97v-538h-97v538zM153 736l76 -136h-82l-49 78l-49 -78h-74l76 136h102z" />
    <glyph glyph-name="idieresis" unicode="&#xef;" horiz-adv-x="203" 
d="M53 538h97v-538h-97v538zM126 670q0 25 17.5 42.5t42.5 17.5t42.5 -17.5t17.5 -42.5t-17.5 -42.5t-42.5 -17.5t-42.5 17.5t-17.5 42.5zM-42 670q0 25 17.5 42.5t42.5 17.5t42.5 -17.5t17.5 -42.5t-17.5 -42.5t-42.5 -17.5t-42.5 17.5t-17.5 42.5z" />
    <glyph glyph-name="eth" unicode="&#xf0;" 
d="M61 629l73 42q-28 25 -61 44l53 55q20 -10 41 -23.5t42 -31.5l77 43l34 -43l-71 -41q52 -57 87.5 -147.5t35.5 -206.5q0 -81 -8.5 -142.5t-28 -103t-51.5 -62.5t-80 -21t-80 22t-51.5 59.5t-28 88t-8.5 108.5q0 62 9.5 113t28.5 88t48 57t67 20q12 0 26 -5t29 -20l2 2
q-26 59 -71 108l-80 -46zM138 295q0 -222 66 -222t66 222q0 37 -3 68t-10.5 53.5t-20.5 35.5t-32 13t-32 -13t-20.5 -35.5t-10.5 -53.5t-3 -68z" />
    <glyph glyph-name="ntilde" unicode="&#xf1;" horiz-adv-x="407" 
d="M53 538h92v-73h2q18 45 44.5 63.5t62.5 18.5q20 0 38 -9t32 -24.5t22 -37.5t8 -48v-428h-97v389q0 32 -13.5 49t-33.5 17q-29 0 -44.5 -23.5t-15.5 -52.5v-379h-97v538zM339 717q0 -21 -6 -40t-17.5 -34t-27.5 -24t-35 -9q-10 0 -21 3.5t-37 15.5q-20 9 -29 11.5t-17 2.5
q-12 0 -20 -6.5t-13 -26.5h-47q2 18 5.5 36t12.5 33q9 14 24 23t37 9q10 0 22 -2.5t41 -12.5q22 -8 32 -10t15 -2q25 0 34 33h47z" />
    <glyph glyph-name="ograve" unicode="&#xf2;" 
d="M204 -9q-48 0 -80 22t-51.5 59.5t-28 88t-8.5 108.5t8.5 108.5t28 88t51.5 59.5t80 22t80 -22t51.5 -59.5t28 -88t8.5 -108.5t-8.5 -108.5t-28 -88t-51.5 -59.5t-80 -22zM204 73q66 0 66 222q0 37 -3 68t-10.5 53.5t-20.5 35.5t-32 13t-32 -13t-20.5 -35.5t-10.5 -53.5
t-3 -68q0 -222 66 -222zM190 736l73 -136h-74l-114 136h115z" />
    <glyph glyph-name="oacute" unicode="&#xf3;" 
d="M204 -9q-48 0 -80 22t-51.5 59.5t-28 88t-8.5 108.5t8.5 108.5t28 88t51.5 59.5t80 22t80 -22t51.5 -59.5t28 -88t8.5 -108.5t-8.5 -108.5t-28 -88t-51.5 -59.5t-80 -22zM204 73q66 0 66 222q0 37 -3 68t-10.5 53.5t-20.5 35.5t-32 13t-32 -13t-20.5 -35.5t-10.5 -53.5
t-3 -68q0 -222 66 -222zM218 736h115l-114 -136h-74z" />
    <glyph glyph-name="ocircumflex" unicode="&#xf4;" 
d="M204 -9q-48 0 -80 22t-51.5 59.5t-28 88t-8.5 108.5t8.5 108.5t28 88t51.5 59.5t80 22t80 -22t51.5 -59.5t28 -88t8.5 -108.5t-8.5 -108.5t-28 -88t-51.5 -59.5t-80 -22zM204 73q66 0 66 222q0 37 -3 68t-10.5 53.5t-20.5 35.5t-32 13t-32 -13t-20.5 -35.5t-10.5 -53.5
t-3 -68q0 -222 66 -222zM255 736l76 -136h-82l-49 78l-49 -78h-74l76 136h102z" />
    <glyph glyph-name="otilde" unicode="&#xf5;" 
d="M204 -9q-48 0 -80 22t-51.5 59.5t-28 88t-8.5 108.5t8.5 108.5t28 88t51.5 59.5t80 22t80 -22t51.5 -59.5t28 -88t8.5 -108.5t-8.5 -108.5t-28 -88t-51.5 -59.5t-80 -22zM204 73q66 0 66 222q0 37 -3 68t-10.5 53.5t-20.5 35.5t-32 13t-32 -13t-20.5 -35.5t-10.5 -53.5
t-3 -68q0 -222 66 -222zM339 717q0 -21 -6 -40t-17.5 -34t-27.5 -24t-35 -9q-10 0 -21 3.5t-37 15.5q-20 9 -29 11.5t-17 2.5q-12 0 -20 -6.5t-13 -26.5h-47q2 18 5.5 36t12.5 33q9 14 24 23t37 9q10 0 22 -2.5t41 -12.5q22 -8 32 -10t15 -2q25 0 34 33h47z" />
    <glyph glyph-name="odieresis" unicode="&#xf6;" 
d="M204 -9q-48 0 -80 22t-51.5 59.5t-28 88t-8.5 108.5t8.5 108.5t28 88t51.5 59.5t80 22t80 -22t51.5 -59.5t28 -88t8.5 -108.5t-8.5 -108.5t-28 -88t-51.5 -59.5t-80 -22zM204 73q66 0 66 222q0 37 -3 68t-10.5 53.5t-20.5 35.5t-32 13t-32 -13t-20.5 -35.5t-10.5 -53.5
t-3 -68q0 -222 66 -222zM228 670q0 25 17.5 42.5t42.5 17.5t42.5 -17.5t17.5 -42.5t-17.5 -42.5t-42.5 -17.5t-42.5 17.5t-17.5 42.5zM60 670q0 25 17.5 42.5t42.5 17.5t42.5 -17.5t17.5 -42.5t-17.5 -42.5t-42.5 -17.5t-42.5 17.5t-17.5 42.5z" />
    <glyph glyph-name="divide" unicode="&#xf7;" horiz-adv-x="600" 
d="M232 460q0 29 19.5 48.5t48.5 19.5t48.5 -19.5t19.5 -48.5t-19.5 -48.5t-48.5 -19.5t-48.5 19.5t-19.5 48.5zM47 216v74h506v-74h-506zM232 46q0 29 19.5 48.5t48.5 19.5t48.5 -19.5t19.5 -48.5t-19.5 -48.5t-48.5 -19.5t-48.5 19.5t-19.5 48.5z" />
    <glyph glyph-name="oslash" unicode="&#xf8;" 
d="M72 74q-20 37 -28 87t-8 108t8.5 108.5t28 88t51.5 59.5t80 22q34 0 59.5 -11t43.5 -31l30 55l40 -22l-41 -74q20 -38 28 -88t8 -107q0 -58 -8.5 -108.5t-28 -88t-51.5 -59.5t-80 -22q-64 0 -103 42l-30 -55l-40 22zM256 412q-14 53 -52 53q-19 0 -32 -13t-20.5 -35.5
t-10.5 -53.5t-3 -68q0 -53 3 -93h2zM155 131q15 -58 49 -58q66 0 66 222v23t-1 21h-2z" />
    <glyph glyph-name="ugrave" unicode="&#xf9;" horiz-adv-x="407" 
d="M354 0h-92v73h-2q-18 -45 -44.5 -63.5t-62.5 -18.5q-20 0 -38 8.5t-32 24.5t-22 38t-8 48v428h97v-389q0 -32 13.5 -49t33.5 -17q29 0 44.5 23.5t15.5 52.5v379h97v-538zM184 736l73 -136h-74l-114 136h115z" />
    <glyph glyph-name="uacute" unicode="&#xfa;" horiz-adv-x="407" 
d="M354 0h-92v73h-2q-18 -45 -44.5 -63.5t-62.5 -18.5q-20 0 -38 8.5t-32 24.5t-22 38t-8 48v428h97v-389q0 -32 13.5 -49t33.5 -17q29 0 44.5 23.5t15.5 52.5v379h97v-538zM212 736h115l-114 -136h-74z" />
    <glyph glyph-name="ucircumflex" unicode="&#xfb;" horiz-adv-x="407" 
d="M354 0h-92v73h-2q-18 -45 -44.5 -63.5t-62.5 -18.5q-20 0 -38 8.5t-32 24.5t-22 38t-8 48v428h97v-389q0 -32 13.5 -49t33.5 -17q29 0 44.5 23.5t15.5 52.5v379h97v-538zM249 736l76 -136h-82l-49 78l-49 -78h-74l76 136h102z" />
    <glyph glyph-name="udieresis" unicode="&#xfc;" horiz-adv-x="407" 
d="M354 0h-92v73h-2q-18 -45 -44.5 -63.5t-62.5 -18.5q-20 0 -38 8.5t-32 24.5t-22 38t-8 48v428h97v-389q0 -32 13.5 -49t33.5 -17q29 0 44.5 23.5t15.5 52.5v379h97v-538zM222 670q0 25 17.5 42.5t42.5 17.5t42.5 -17.5t17.5 -42.5t-17.5 -42.5t-42.5 -17.5t-42.5 17.5
t-17.5 42.5zM54 670q0 25 17.5 42.5t42.5 17.5t42.5 -17.5t17.5 -42.5t-17.5 -42.5t-42.5 -17.5t-42.5 17.5t-17.5 42.5z" />
    <glyph glyph-name="yacute" unicode="&#xfd;" horiz-adv-x="352" 
d="M332 538l-150 -729h-97l48 216l-113 513h97l65 -353h2l51 353h97zM190 736h115l-114 -136h-74z" />
    <glyph glyph-name="thorn" unicode="&#xfe;" 
d="M53 736h92v-282h2q17 50 41 71.5t62 21.5q24 0 46 -12t39 -43t27 -85t10 -137q0 -129 -31 -204t-94 -75q-40 0 -63 25t-37 72l-2 1v-280h-92v927zM145 269q0 -62 6 -99.5t15 -58t20 -27t22 -6.5q10 0 21 6.5t20 27t15 58t6 99.5t-6 99.5t-15 58t-20 27t-21 6.5
q-11 0 -22 -6.5t-20 -27t-15 -58t-6 -99.5z" />
    <glyph glyph-name="ydieresis" unicode="&#xff;" horiz-adv-x="352" 
d="M332 538l-150 -729h-97l48 216l-113 513h97l65 -353h2l51 353h97zM200 670q0 25 17.5 42.5t42.5 17.5t42.5 -17.5t17.5 -42.5t-17.5 -42.5t-42.5 -17.5t-42.5 17.5t-17.5 42.5zM32 670q0 25 17.5 42.5t42.5 17.5t42.5 -17.5t17.5 -42.5t-17.5 -42.5t-42.5 -17.5
t-42.5 17.5t-17.5 42.5z" />
    <glyph glyph-name="dotlessi" unicode="&#x131;" horiz-adv-x="203" 
d="M53 538h97v-538h-97v538z" />
    <glyph glyph-name="OE" unicode="&#x152;" horiz-adv-x="630" 
d="M593 434v-87h-181v-260h181v-87h-255q-15 0 -27.5 -2t-26.5 -5q-13 -3 -26 -5.5t-26 -2.5q-66 0 -105 33t-59 87t-25.5 123t-5.5 140q0 76 8 145.5t30 122t59.5 84t97.5 31.5q22 0 36.5 -2.5t28.5 -5.5t30 -5t38 -2h228v-87h-181v-215h181zM315 368q0 77 -2.5 132
t-10.5 90.5t-23 52t-41 16.5q-23 0 -40.5 -15t-29.5 -49t-18 -90t-6 -137t6 -137t18 -90t29.5 -49t40.5 -15q26 0 41 16.5t23 51.5t10.5 90.5t2.5 132.5z" />
    <glyph glyph-name="oe" unicode="&#x153;" horiz-adv-x="574" 
d="M337 259v-80q0 -47 13.5 -76.5t46.5 -29.5q24 0 37.5 19.5t17.5 77.5h87q-3 -32 -11 -64t-24 -57.5t-41.5 -41.5t-62.5 -16q-47 0 -72 23.5t-35 53.5q-16 -38 -39.5 -57.5t-65.5 -19.5q-37 0 -63 16.5t-43.5 42.5t-28 58.5t-15.5 64.5t-6.5 60.5t-1.5 46.5q0 57 10 106
t30 85t49.5 56t68.5 20q38 0 64.5 -22t39.5 -57h2q12 38 40 58.5t63 20.5q71 0 109 -63t38 -176v-49h-207zM452 333q-1 24 -3 48t-8 42.5t-17 30t-30 11.5q-20 0 -31 -11.5t-16.5 -30t-7.5 -42t-2 -48.5h115zM193 73q34 0 45.5 46.5t11.5 147.5q0 30 -1 64.5t-7 64
t-17.5 49.5t-32.5 20q-23 0 -35.5 -19t-19.5 -47.5t-8.5 -60.5t-1.5 -59q0 -36 2.5 -72.5t9.5 -66.5t20 -48.5t34 -18.5z" />
    <glyph glyph-name="Scaron" unicode="&#x160;" horiz-adv-x="407" 
d="M276 557q-2 21 -6 39.5t-13 32.5t-22.5 22t-32.5 8q-30 0 -47 -23t-17 -54q0 -28 14.5 -60t54.5 -71l83 -81q26 -26 43.5 -49.5t28 -47.5t15 -49.5t4.5 -54.5q0 -38 -11.5 -71.5t-33.5 -58.5t-55.5 -39.5t-76.5 -14.5q-75 0 -122 45t-56 131l97 31q5 -51 24.5 -85.5
t57.5 -34.5q28 0 51 22.5t23 67.5q0 30 -15.5 64.5t-56.5 75.5l-80 79q-50 49 -70.5 95t-20.5 100q0 41 13.5 73.5t36.5 55t52.5 34.5t61.5 12q76 0 121 -43t47 -118zM153 773l-76 136h74l49 -78l49 78h82l-76 -136h-102z" />
    <glyph glyph-name="scaron" unicode="&#x161;" horiz-adv-x="352" 
d="M109 148q1 -29 18 -52t48 -23q27 0 41 17t14 37t-12.5 41.5t-47.5 48.5l-51 40q-50 39 -69 72t-19 76q0 33 11 59.5t30 44.5t45.5 28t56.5 10q62 0 96 -30.5t51 -74.5l-83 -50q-2 29 -17.5 51t-47.5 22q-23 0 -36.5 -13.5t-13.5 -35.5q0 -17 11 -34.5t49 -45.5l61 -47
q48 -37 65.5 -74t17.5 -77q0 -30 -10 -56.5t-29.5 -46.5t-48.5 -32t-66 -12q-54 0 -89.5 24t-58.5 80zM125 600l-76 136h74l49 -78l49 78h82l-76 -136h-102z" />
    <glyph glyph-name="Ydieresis" unicode="&#x178;" horiz-adv-x="407" 
d="M127 736l80 -307h2l76 307h102l-130 -439v-297h-102v297l-135 439h107zM228 843q0 25 17.5 42.5t42.5 17.5t42.5 -17.5t17.5 -42.5t-17.5 -42.5t-42.5 -17.5t-42.5 17.5t-17.5 42.5zM60 843q0 25 17.5 42.5t42.5 17.5t42.5 -17.5t17.5 -42.5t-17.5 -42.5t-42.5 -17.5
t-42.5 17.5t-17.5 42.5z" />
    <glyph glyph-name="Zcaron" unicode="&#x17d;" horiz-adv-x="407" 
d="M387 736l-230 -649h211v-87h-348l231 649h-208v87h344zM159 773l-76 136h74l49 -78l49 78h82l-76 -136h-102z" />
    <glyph glyph-name="zcaron" unicode="&#x17e;" horiz-adv-x="352" 
d="M199 451h-173v87h298v-12l-169 -434h171v-92h-298v12zM125 600l-76 136h74l49 -78l49 78h82l-76 -136h-102z" />
    <glyph glyph-name="florin" unicode="&#x192;" 
d="M87 387h84l19 177q4 39 13 67.5t25.5 47t41.5 27.5t61 9q34 0 51 -4l-9 -90q-5 1 -11.5 1.5t-11.5 0.5q-35 0 -47 -20t-16 -52l-19 -164h91l-9 -52h-86l-51 -414q-7 -58 -41 -88t-92 -30q-17 0 -30 1t-24 3l13 92q10 -4 20 -4q25 0 39.5 8.5t17.5 34.5l51 397h-89z" />
    <glyph glyph-name="circumflex" unicode="&#x2c6;" horiz-adv-x="204" 
d="M153 736l76 -136h-82l-49 78l-49 -78h-74l76 136h102z" />
    <glyph glyph-name="caron" unicode="&#x2c7;" horiz-adv-x="204" 
d="M51 600l-76 136h74l49 -78l49 78h82l-76 -136h-102z" />
    <glyph glyph-name="ring" unicode="&#x2da;" horiz-adv-x="204" 
d="M14 663q0 37 25.5 62.5t62.5 25.5t62.5 -25.5t25.5 -62.5t-25.5 -62.5t-62.5 -25.5t-62.5 25.5t-25.5 62.5zM56 663q0 -19 13.5 -32.5t32.5 -13.5t32.5 13.5t13.5 32.5t-13.5 32.5t-32.5 13.5t-32.5 -13.5t-13.5 -32.5z" />
    <glyph glyph-name="tilde" unicode="&#x2dc;" horiz-adv-x="204" 
d="M237 717q0 -21 -6 -40t-17.5 -34t-27.5 -24t-35 -9q-10 0 -21 3.5t-37 15.5q-20 9 -29 11.5t-17 2.5q-12 0 -20 -6.5t-13 -26.5h-47q2 18 5.5 36t12.5 33q9 14 24 23t37 9q10 0 22 -2.5t41 -12.5q22 -8 32 -10t15 -2q25 0 34 33h47z" />
    <glyph glyph-name="endash" unicode="&#x2013;" horiz-adv-x="500" 
d="M500 324v-82h-500v82h500z" />
    <glyph glyph-name="emdash" unicode="&#x2014;" horiz-adv-x="1000" 
d="M0 324h1000v-82h-1000v82z" />
    <glyph glyph-name="quoteleft" unicode="&#x2018;" horiz-adv-x="240" 
d="M198 736l-59 -204h-97l82 204h74z" />
    <glyph glyph-name="quoteright" unicode="&#x2019;" horiz-adv-x="240" 
d="M42 532l59 204h97l-82 -204h-74z" />
    <glyph glyph-name="quotesinglbase" unicode="&#x201a;" horiz-adv-x="240" 
d="M42 -77l59 204h97l-82 -204h-74z" />
    <glyph glyph-name="quotedblleft" unicode="&#x201c;" horiz-adv-x="352" 
d="M335 736l-60 -204h-97l83 204h74zM174 736l-60 -204h-97l83 204h74z" />
    <glyph glyph-name="quotedblright" unicode="&#x201d;" horiz-adv-x="352" 
d="M178 532l60 204h97l-83 -204h-74zM17 532l60 204h97l-83 -204h-74z" />
    <glyph glyph-name="quotedblbase" unicode="&#x201e;" horiz-adv-x="352" 
d="M178 -77l60 204h97l-83 -204h-74zM17 -77l60 204h97l-83 -204h-74z" />
    <glyph glyph-name="dagger" unicode="&#x2020;" horiz-adv-x="407" 
d="M29 532h126v204h97v-204h126v-87h-126v-534h-97v534h-126v87z" />
    <glyph glyph-name="daggerdbl" unicode="&#x2021;" horiz-adv-x="407" 
d="M155 736h97v-172h126v-87h-126v-307h126v-87h-126v-172h-97v172h-126v87h126v307h-126v87h126v172z" />
    <glyph glyph-name="bullet" unicode="&#x2022;" horiz-adv-x="500" 
d="M66 368q0 38 14.5 71.5t39.5 58.5t58.5 39.5t71.5 14.5t71.5 -14.5t58.5 -39.5t39.5 -58.5t14.5 -71.5t-14.5 -71.5t-39.5 -58.5t-58.5 -39.5t-71.5 -14.5t-71.5 14.5t-58.5 39.5t-39.5 58.5t-14.5 71.5z" />
    <glyph glyph-name="ellipsis" unicode="&#x2026;" horiz-adv-x="1000" 
d="M773 54q0 25 17.5 42.5t42.5 17.5t42.5 -17.5t17.5 -42.5t-17.5 -42.5t-42.5 -17.5t-42.5 17.5t-17.5 42.5zM440 54q0 25 17.5 42.5t42.5 17.5t42.5 -17.5t17.5 -42.5t-17.5 -42.5t-42.5 -17.5t-42.5 17.5t-17.5 42.5zM107 54q0 25 17.5 42.5t42.5 17.5t42.5 -17.5
t17.5 -42.5t-17.5 -42.5t-42.5 -17.5t-42.5 17.5t-17.5 42.5z" />
    <glyph glyph-name="perthousand" unicode="&#x2030;" horiz-adv-x="1000" 
d="M581 723l-431 -743h-64l431 743h64zM15 543q0 46 11.5 78.5t31 53.5t45 30.5t52.5 9.5t52.5 -9.5t45 -30.5t31 -53.5t11.5 -78.5q0 -47 -11.5 -79.5t-31 -53t-45 -30t-52.5 -9.5t-52.5 9.5t-45 30t-31 53t-11.5 79.5zM102 540q0 -45 10.5 -73t42.5 -28t42.5 28t10.5 73
t-10.5 73t-42.5 28t-42.5 -28t-10.5 -73zM705 160q0 46 11.5 78.5t31 53.5t45 30.5t52.5 9.5t52.5 -9.5t45 -30.5t31 -53.5t11.5 -78.5q0 -47 -11.5 -79.5t-31 -53t-45 -30t-52.5 -9.5t-52.5 9.5t-45 30t-31 53t-11.5 79.5zM366 160q0 46 11.5 78.5t31 53.5t45 30.5
t52.5 9.5t52.5 -9.5t45 -30.5t31 -53.5t11.5 -78.5q0 -47 -11.5 -79.5t-31 -53t-45 -30t-52.5 -9.5t-52.5 9.5t-45 30t-31 53t-11.5 79.5zM792 157q0 -45 10.5 -73t42.5 -28t42.5 28t10.5 73t-10.5 73t-42.5 28t-42.5 -28t-10.5 -73zM453 157q0 -45 10.5 -73t42.5 -28
t42.5 28t10.5 73t-10.5 73t-42.5 28t-42.5 -28t-10.5 -73z" />
    <glyph glyph-name="guilsinglleft" unicode="&#x2039;" horiz-adv-x="241" 
d="M118 435h97l-97 -155l97 -149h-97l-92 149z" />
    <glyph glyph-name="guilsinglright" unicode="&#x203a;" horiz-adv-x="241" 
d="M26 131l97 155l-97 149h97l92 -149l-92 -155h-97z" />
    <glyph glyph-name="Euro" unicode="&#x20ac;" 
d="M50 321v71h-35l10 52h28q3 48 13 96.5t30 87.5t53.5 63.5t83.5 24.5q57 0 96.5 -39.5t58.5 -120.5l-96 -33q-7 57 -23.5 81t-37.5 24q-20 0 -33.5 -14.5t-22.5 -39.5t-14.5 -58.5t-7.5 -71.5h165l-10 -52h-157v-71h143l-10 -52h-131q2 -43 7.5 -79t14.5 -62t22.5 -40.5
t32.5 -14.5q17 0 29.5 12t21.5 31t14.5 43.5t8.5 50.5l92 -34q-5 -39 -17 -74t-32.5 -60.5t-49.5 -40.5t-69 -15t-70.5 15.5t-52.5 49.5t-35.5 87.5t-17.5 130.5h-37l10 52h25z" />
    <glyph glyph-name="trademark" unicode="&#x2122;" horiz-adv-x="990" 
d="M810 662h-2l-129 -338h-50l-129 338h-2v-338h-74v412h113l118 -303l116 303h113v-412h-74v338zM153 678h-127v58h328v-58h-127v-354h-74v354z" />
    <glyph glyph-name="uniE000" unicode="&#xe000;" horiz-adv-x="204" 
d="M88 909l73 -136h-74l-114 136h115z" />
    <glyph glyph-name="uniE002" unicode="&#xe002;" horiz-adv-x="204" 
d="M116 909h115l-114 -136h-74z" />
    <glyph glyph-name="uniE004" unicode="&#xe004;" horiz-adv-x="204" 
d="M153 909l76 -136h-82l-49 78l-49 -78h-74l76 136h102z" />
    <glyph glyph-name="uniE006" unicode="&#xe006;" horiz-adv-x="204" 
d="M51 773l-76 136h74l49 -78l49 78h82l-76 -136h-102z" />
    <glyph glyph-name="uniE009" unicode="&#xe009;" horiz-adv-x="204" 
d="M237 890q0 -21 -6 -40t-17.5 -34t-27.5 -24t-35 -9q-10 0 -21 3.5t-37 15.5q-20 9 -29 11.5t-17 2.5q-12 0 -20 -6.5t-13 -26.5h-47q2 18 5.5 36t12.5 33q9 14 24 23t37 9q10 0 22 -2.5t41 -12.5q22 -8 32 -10t15 -2q25 0 34 33h47z" />
    <glyph glyph-name="uniE00B" unicode="&#xe00b;" horiz-adv-x="204" 
d="M126 843q0 25 17.5 42.5t42.5 17.5t42.5 -17.5t17.5 -42.5t-17.5 -42.5t-42.5 -17.5t-42.5 17.5t-17.5 42.5zM-42 843q0 25 17.5 42.5t42.5 17.5t42.5 -17.5t17.5 -42.5t-17.5 -42.5t-42.5 -17.5t-42.5 17.5t-17.5 42.5z" />
    <glyph glyph-name="uniE011" unicode="&#xe011;" horiz-adv-x="204" 
d="M14 846q0 37 25.5 62.5t62.5 25.5t62.5 -25.5t25.5 -62.5t-25.5 -62.5t-62.5 -25.5t-62.5 25.5t-25.5 62.5zM56 846q0 -19 13.5 -32.5t32.5 -13.5t32.5 13.5t13.5 32.5t-13.5 32.5t-32.5 13.5t-32.5 -13.5t-13.5 -32.5z" />
    </font>
</defs>
</svg>
